<?xml version="1.0" encoding="utf-8"?>
<!-- Generator: Adobe Illustrator 21.1.0, SVG Export Plug-In . SVG Version: 6.00 Build 0)  -->
<svg version="1.1" id="Layer_1" xmlns="http://www.w3.org/2000/svg" xmlns:xlink="http://www.w3.org/1999/xlink" x="0px" y="0px"
	 viewBox="0 0 720 720" style="enable-background:new 0 0 720 720;" xml:space="preserve">
<style type="text/css">
	.st0{fill:none;stroke:#818282;stroke-width:1.4173;stroke-miterlimit:10;}
	.st1{fill-rule:evenodd;clip-rule:evenodd;fill:#989999;}
	.st2{fill:none;stroke:#989999;stroke-width:2.8346;stroke-miterlimit:10;}
	.st3{fill:#4E4E4E;}
	.st4{fill-rule:evenodd;clip-rule:evenodd;fill:#818282;}
	.st5{fill:#818282;}
	.st6{fill:#AFDBF1;}
	.st7{fill:#989999;}
	.st8{fill:none;stroke:#818282;stroke-width:1.4173;stroke-linejoin:bevel;stroke-miterlimit:10;}
	.st9{fill:none;}
	.st10{fill-rule:evenodd;clip-rule:evenodd;fill:#AFDBF1;}
	.st11{fill:#FFFFFF;stroke:#818282;stroke-width:1.4173;stroke-miterlimit:10;}
</style>
<path class="st1" d="M572,128.7h-10.6v-19.4H572h19.4v19.4v54.2v19.4V612h-3.2H572H354.4v-19.4h93.2v-18.3h9.7v18.3H572V480.7H457.3
	v42.2h-9.7v-42.2V471h9.7H572V202.3h-33.8v-19.4H572V128.7z M387.9,495.7h9.6v9.7h-9.6h-3.4h-16h-13v-9.7h13V202.3h-37.3l3.9-19.4
	h33.4h19.4h35.1l3.9,19.4h-38.9V495.7z M397.2,128.7h-30v-19.4h30V128.7z M216.6,128.7H206v54.2h13.7v19.4h-33.1v293.4h62.6h56.1
	v9.7h-56.1v9.7v77.5h55.6l-0.5,10.5l2.6,8.9h-57.7h-19.4v-19.4v-77.5h-62.6v-9.7v-9.7V182.9h19.4v-54.2v-19.4H206h10.6V128.7z"/>
<polygon class="st1" points="285.5,182.9 285.5,187.2 285.5,198.1 285.5,202.3 281.2,202.3 219.8,202.3 219.8,198.1 281.2,198.1
	281.2,187.2 219.8,187.2 219.8,182.9 281.2,182.9 "/>
<polygon class="st1" points="474.2,202.3 474.2,198.1 474.2,187.2 474.2,182.9 478.5,182.9 539.1,182.9 539.1,187.2 478.5,187.2
	478.5,198.1 539.1,198.1 539.1,202.3 478.5,202.3 "/>
<path class="st1" d="M562.3,109.3v4.3H397.2v-4.3H562.3z M562.3,124.5v4.3H397.2v-4.3H562.3z"/>
<path class="st1" d="M368.1,109.3v4.3H216.6v-4.3H368.1z M368.1,124.5v4.3H216.6v-4.3H368.1z"/>
<path class="st2" d="M456.9,522.9c-28.4,0-51.4,23-51.4,51.5h51.4"/>
<path class="st2" d="M304.2,592.6c0,27.8,22.5,50.2,50.2,50.2v-50.2"/>
<path class="st2" d="M448.5,506c0-27.8-22.5-50.2-50.2-50.2V506"/>
<path class="st2" d="M423.8,182.9c0,27.8,22.5,50.3,50.4,50.3v-50.3"/>
<path class="st2" d="M335.9,182.9c0,27.8-22.6,50.3-50.4,50.3v-50.3"/>
<path class="st3" d="M403.3,433.2v6H402v-6l-0.4-0.4l-5.3,6.3h-1.7l6.2-7.1l-5.7-5.8h1.7l5.2,5.5v-5.5h1.3v5.5l5.2-5.5h1.7l-5.7,5.8
	l6.2,7.1H409l-5.3-6.3L403.3,433.2z M413.6,429.7v7.1l7-7.1h0.1v9.6h-1.2v-7l-7,7h-0.1v-9.6H413.6z M431.6,439.2h-1.3l-3.2-7l-3.2,7
	h-1.3l4.4-9.6h0.2L431.6,439.2z M443,429.7v9.6h-1.2v-1.6c-0.5,0.6-1.1,1.1-1.7,1.4c-0.6,0.3-1.3,0.5-2.1,0.5
	c-1.3,0-2.5-0.5-3.5-1.5c-1-1-1.4-2.2-1.4-3.6s0.5-2.6,1.5-3.5c1-1,2.1-1.5,3.5-1.5c0.8,0,1.5,0.2,2.1,0.5c0.7,0.3,1.2,0.9,1.7,1.5
	v-1.8H443z M438.1,430.6c-0.7,0-1.3,0.2-1.9,0.5c-0.6,0.3-1,0.8-1.4,1.4c-0.3,0.6-0.5,1.2-0.5,1.9c0,0.7,0.2,1.3,0.5,1.9
	c0.4,0.6,0.8,1.1,1.4,1.4c0.6,0.4,1.2,0.5,1.9,0.5c0.7,0,1.3-0.2,1.9-0.5c0.6-0.3,1-0.8,1.4-1.4c0.3-0.6,0.5-1.2,0.5-2
	c0-1.1-0.4-2-1.1-2.7C440,431,439.1,430.6,438.1,430.6L438.1,430.6z M449.8,435h-0.9l-2.7,4.3h-1.3l2.9-4.4
	c-0.7-0.1-1.3-0.3-1.7-0.8c-0.5-0.5-0.7-1-0.7-1.7c0-0.9,0.3-1.5,0.8-2c0.5-0.5,1.2-0.7,2-0.7h2.9v9.6h-1.2V435z M449.8,430.8H449
	c-0.8,0-1.3,0-1.6,0.1c-0.3,0.1-0.5,0.3-0.6,0.5c-0.2,0.3-0.3,0.6-0.3,1s0.1,0.7,0.3,1s0.5,0.4,0.7,0.5c0.2,0.1,0.7,0.1,1.5,0.1h0.8
	V430.8z M458.8,429.7h1.2v4l4.5-4h1.7l-4.8,4.4l5.2,5.2h-1.7l-4.4-4.4l-0.4,0.3v4.1h-1.2V429.7z M472.3,429.4c1.5,0,2.7,0.5,3.7,1.6
	c0.9,1,1.3,2.1,1.3,3.5c0,1.3-0.5,2.5-1.4,3.5c-0.9,1-2.1,1.5-3.6,1.5c-1.4,0-2.7-0.5-3.6-1.5s-1.4-2.2-1.4-3.5
	c0-1.3,0.5-2.5,1.3-3.5C469.6,430,470.8,429.4,472.3,429.4L472.3,429.4z M472.3,430.6c-1,0-1.9,0.4-2.6,1.1
	c-0.7,0.8-1.1,1.7-1.1,2.7c0,0.7,0.2,1.3,0.5,1.9c0.3,0.6,0.8,1,1.4,1.4c0.6,0.3,1.2,0.5,1.9,0.5c0.7,0,1.3-0.1,1.9-0.5
	c0.6-0.3,1-0.8,1.4-1.4c0.3-0.6,0.5-1.2,0.5-1.9c0-1.1-0.4-2-1.1-2.7C474.2,431,473.3,430.6,472.3,430.6L472.3,430.6z M490,429.7
	h0.3l3.2,9.6h-1.3l-2.4-7l-3.7,7H486l-3.7-7l-2.4,7h-1.3l3.3-9.6h0.3l3.9,7.5L490,429.7z M502.2,434.6h-5.6v4.6h-1.2v-9.6h1.2v3.8
	h5.6v-3.8h1.2v9.6h-1.2V434.6z M515.7,429.7v9.6h-1.2v-1.6c-0.5,0.6-1.1,1.1-1.7,1.4c-0.7,0.3-1.3,0.5-2.1,0.5
	c-1.4,0-2.5-0.5-3.5-1.5c-1-1-1.4-2.2-1.4-3.6s0.5-2.6,1.4-3.5c1-1,2.1-1.5,3.5-1.5c0.8,0,1.5,0.2,2.1,0.5c0.6,0.3,1.2,0.9,1.7,1.5
	v-1.8H515.7z M510.7,430.6c-0.7,0-1.3,0.2-1.9,0.5c-0.6,0.3-1,0.8-1.4,1.4c-0.3,0.6-0.5,1.2-0.5,1.9c0,0.7,0.2,1.3,0.5,1.9
	s0.8,1.1,1.4,1.4c0.6,0.4,1.2,0.5,1.9,0.5c0.7,0,1.3-0.2,1.9-0.5c0.6-0.3,1.1-0.8,1.4-1.4c0.3-0.6,0.5-1.2,0.5-2
	c0-1.1-0.4-2-1.1-2.7C512.7,431,511.8,430.6,510.7,430.6L510.7,430.6z M517.4,429.7h6.3v1.1h-2.5v8.5h-1.2v-8.5h-2.5V429.7z
	 M534.9,429.7v9.6h-1.2v-1.6c-0.5,0.6-1.1,1.1-1.7,1.4c-0.7,0.3-1.4,0.5-2.1,0.5c-1.4,0-2.5-0.5-3.5-1.5c-1-1-1.4-2.2-1.4-3.6
	s0.5-2.6,1.4-3.5c1-1,2.1-1.5,3.5-1.5c0.8,0,1.5,0.2,2.1,0.5c0.6,0.3,1.2,0.9,1.7,1.5v-1.8H534.9z M529.9,430.6
	c-0.7,0-1.3,0.2-1.9,0.5c-0.6,0.3-1,0.8-1.4,1.4c-0.3,0.6-0.5,1.2-0.5,1.9c0,0.7,0.2,1.3,0.5,1.9s0.8,1.1,1.4,1.4
	c0.6,0.4,1.2,0.5,1.9,0.5c0.7,0,1.3-0.2,1.9-0.5c0.6-0.3,1.1-0.8,1.4-1.4c0.3-0.6,0.5-1.2,0.5-2c0-1.1-0.3-2-1.1-2.7
	C531.9,431,531,430.6,529.9,430.6L529.9,430.6z"/>
<path class="st3" d="M227.4,423h1.3v4.8l5.2-4.8h1.7l-6.2,5.8l6.7,7.1h-1.7l-5.7-6v6h-1.3V423z M236.8,426.4h1.3l3.3,7.3l3.2-7.3
	h1.3l-5.7,13.1h-1.3l1.9-4.3L236.8,426.4z M246.4,426.4h1.5l2.6,3.5l2.5-3.5h1.5l-3.2,4.5l3.7,5h-1.5l-2.9-4l-2.9,4H246l3.6-5
	L246.4,426.4z M262.9,431.4h-5.6v4.6h-1.2v-9.6h1.2v3.8h5.6v-3.8h1.2v9.6h-1.2V431.4z M270.9,431.7H270l-2.7,4.3h-1.3l2.9-4.4
	c-0.7-0.1-1.3-0.4-1.8-0.8c-0.4-0.5-0.7-1-0.7-1.7c0-0.9,0.3-1.5,0.8-2c0.5-0.5,1.2-0.7,2-0.7h2.9v9.6h-1.2V431.7z M270.9,427.5
	h-0.8c-0.8,0-1.3,0-1.6,0.1c-0.3,0.1-0.5,0.3-0.7,0.5c-0.2,0.3-0.2,0.6-0.2,1c0,0.4,0.1,0.7,0.3,1c0.2,0.3,0.5,0.4,0.7,0.5
	c0.3,0.1,0.7,0.1,1.5,0.1h0.8V427.5z M274.1,430.6h4.8v1.1h-4.8V430.6z M290.1,428.4l-1,0.6c-0.8-1.1-2-1.7-3.5-1.7
	c-1.2,0-2.1,0.4-2.9,1.1c-0.8,0.8-1.1,1.6-1.1,2.7c0,0.7,0.2,1.4,0.5,2c0.4,0.6,0.9,1.1,1.5,1.4s1.3,0.5,2.1,0.5
	c1.4,0,2.6-0.6,3.4-1.7l1,0.6c-0.5,0.7-1.1,1.2-1.8,1.6c-0.8,0.4-1.7,0.6-2.6,0.6c-1.5,0-2.8-0.5-3.8-1.4c-1-1-1.5-2.1-1.5-3.5
	c0-0.9,0.2-1.8,0.7-2.6c0.5-0.8,1.1-1.4,1.9-1.9c0.8-0.4,1.7-0.7,2.7-0.7c0.6,0,1.2,0.1,1.8,0.3s1.1,0.5,1.5,0.8
	C289.5,427.5,289.8,427.9,290.1,428.4L290.1,428.4z M291.4,426.4h6.3v1.1h-2.5v8.5h-1.2v-8.5h-2.5V426.4z M303.9,426.2
	c1.5,0,2.7,0.5,3.7,1.6c0.9,1,1.3,2.1,1.3,3.5s-0.5,2.5-1.4,3.5c-0.9,1-2.1,1.5-3.6,1.5c-1.5,0-2.7-0.5-3.6-1.5s-1.4-2.2-1.4-3.5
	s0.4-2.5,1.3-3.4C301.2,426.7,302.4,426.2,303.9,426.2L303.9,426.2z M303.9,427.4c-1,0-1.9,0.4-2.6,1.1c-0.7,0.8-1.1,1.7-1.1,2.7
	c0,0.7,0.2,1.3,0.5,1.9s0.8,1,1.4,1.4c0.6,0.3,1.2,0.5,1.9,0.5c0.7,0,1.3-0.1,1.9-0.5c0.6-0.3,1-0.8,1.4-1.4
	c0.3-0.6,0.5-1.2,0.5-1.9c0-1.1-0.4-2-1.1-2.7C305.8,427.8,304.9,427.4,303.9,427.4L303.9,427.4z M319.3,436H318l-3.2-6.9l-3.2,6.9
	h-1.3l4.4-9.6h0.2L319.3,436z M325.7,426.2c1.5,0,2.7,0.5,3.7,1.6c0.9,1,1.3,2.1,1.3,3.5s-0.5,2.5-1.4,3.5c-0.9,1-2.1,1.5-3.6,1.5
	c-1.5,0-2.7-0.5-3.6-1.5c-0.9-1-1.4-2.2-1.4-3.5s0.5-2.5,1.3-3.4C323,426.7,324.2,426.2,325.7,426.2L325.7,426.2z M325.7,427.4
	c-1,0-1.9,0.4-2.6,1.1c-0.7,0.8-1.1,1.7-1.1,2.7c0,0.7,0.2,1.3,0.5,1.9c0.3,0.6,0.8,1,1.4,1.4c0.6,0.3,1.2,0.5,1.9,0.5
	c0.7,0,1.3-0.1,1.9-0.5c0.6-0.3,1-0.8,1.4-1.4c0.3-0.6,0.5-1.2,0.5-1.9c0-1.1-0.4-2-1.1-2.7C327.5,427.8,326.7,427.4,325.7,427.4
	L325.7,427.4z M335.7,436h-2.8v-9.6h2.7c1,0,1.8,0.3,2.3,0.7c0.5,0.5,0.7,1,0.7,1.7c0,1-0.4,1.6-1.3,2c1.2,0.5,1.9,1.3,1.9,2.6
	C339.2,435.1,338,436,335.7,436L335.7,436z M334.1,427.5v2.9h0.8c0.7,0,1.2,0,1.4-0.1c0.2-0.1,0.4-0.2,0.6-0.4
	c0.2-0.2,0.3-0.5,0.3-0.9c0-0.4-0.1-0.7-0.3-1c-0.2-0.3-0.4-0.4-0.7-0.5c-0.2,0-0.7-0.1-1.4-0.1H334.1z M334.1,431.6v3.4h1.3
	c0.6,0,1-0.1,1.3-0.1c0.3-0.1,0.5-0.2,0.7-0.5c0.2-0.3,0.3-0.6,0.3-1c0-0.5-0.2-0.9-0.5-1.2c-0.3-0.3-0.8-0.5-1.3-0.5H334.1z
	 M350.9,426.4v9.6h-1.2v-1.6c-0.5,0.6-1.1,1.1-1.8,1.4c-0.6,0.3-1.3,0.5-2.1,0.5c-1.3,0-2.5-0.5-3.5-1.5c-1-1-1.4-2.2-1.4-3.6
	s0.5-2.6,1.4-3.5c1-1,2.1-1.5,3.5-1.5c0.8,0,1.5,0.2,2.1,0.5c0.6,0.3,1.2,0.9,1.7,1.5v-1.8H350.9z M345.9,427.4
	c-0.7,0-1.3,0.2-1.9,0.5c-0.6,0.3-1,0.8-1.4,1.4c-0.3,0.6-0.5,1.2-0.5,1.9s0.2,1.3,0.5,1.9c0.3,0.6,0.8,1.1,1.4,1.4
	c0.6,0.3,1.2,0.5,1.9,0.5c0.7,0,1.3-0.2,1.9-0.5s1-0.8,1.4-1.4c0.3-0.6,0.5-1.2,0.5-2c0-1.1-0.4-2-1.1-2.7
	C347.9,427.7,347,427.4,345.9,427.4L345.9,427.4z M357.7,431.7h-0.9l-2.7,4.3h-1.3l2.9-4.4c-0.7-0.1-1.3-0.4-1.8-0.8s-0.7-1-0.7-1.7
	c0-0.9,0.3-1.5,0.8-2c0.5-0.5,1.2-0.7,2-0.7h2.9v9.6h-1.2V431.7z M357.7,427.5h-0.8c-0.8,0-1.3,0-1.6,0.1c-0.3,0.1-0.5,0.3-0.6,0.5
	c-0.2,0.3-0.3,0.6-0.3,1c0,0.4,0.1,0.7,0.3,1c0.2,0.3,0.5,0.4,0.7,0.5c0.2,0.1,0.7,0.1,1.5,0.1h0.8V427.5z"/>
<path class="st3" d="M355.4,564.7h1.5l3.1,5l3.1-5h1.5l-3.9,6.3l4.1,6.7h-1.5l-3.3-5.4l-3.4,5.4H355l4.1-6.7L355.4,564.7z
	 M371.3,567.8c1.5,0,2.7,0.5,3.7,1.6c0.9,1,1.3,2.1,1.3,3.5s-0.5,2.5-1.4,3.5s-2.2,1.5-3.6,1.5c-1.5,0-2.7-0.5-3.6-1.5
	c-0.9-1-1.4-2.2-1.4-3.5s0.5-2.5,1.3-3.5C368.6,568.3,369.8,567.8,371.3,567.8L371.3,567.8z M371.3,569c-1,0-1.9,0.4-2.6,1.1
	c-0.7,0.8-1.1,1.7-1.1,2.7c0,0.7,0.2,1.3,0.5,1.9c0.3,0.6,0.8,1,1.4,1.4c0.6,0.3,1.2,0.5,1.9,0.5s1.3-0.1,1.9-0.5
	c0.6-0.3,1-0.8,1.4-1.4c0.3-0.6,0.5-1.2,0.5-1.9c0-1.1-0.4-2-1.1-2.7C373.2,569.4,372.3,569,371.3,569L371.3,569z M386.7,577.6h-1.3
	l-3.2-7l-3.2,7h-1.3l4.4-9.6h0.2L386.7,577.6z M396.7,577.6h-1.3l-3.2-7l-3.2,7h-1.3l4.4-9.6h0.2L396.7,577.6z"/>
<path class="st3" d="M267.1,563l1.4,0.9l-4.7,7.1c0.6-0.2,1.2-0.3,1.8-0.3c1.4,0,2.5,0.5,3.5,1.5c0.9,1,1.4,2.2,1.4,3.7
	c0,1-0.2,1.9-0.7,2.7c-0.5,0.8-1.1,1.4-2,1.9c-0.9,0.5-1.8,0.7-2.7,0.7s-1.8-0.2-2.6-0.7c-0.8-0.5-1.4-1.1-1.9-1.9
	c-0.5-0.8-0.7-1.7-0.7-2.7c0-0.7,0.1-1.4,0.4-2.2c0.3-0.8,0.8-1.7,1.5-2.8L267.1,563z M265.2,572.1c-1,0-1.8,0.4-2.6,1.1
	c-0.7,0.7-1.1,1.6-1.1,2.6s0.4,1.9,1.1,2.6c0.7,0.7,1.6,1,2.6,1c1,0,1.9-0.3,2.6-1c0.7-0.7,1-1.6,1-2.6s-0.3-1.8-1-2.6
	C267,572.5,266.1,572.1,265.2,572.1L265.2,572.1z M275,577.5l1.6,0.8l-2.4,4.4l-1.2-0.5L275,577.5z M303.3,563.4v1.6h-6.1l-0.9,4.7
	c0.7-0.2,1.4-0.3,2-0.3c1.6,0,2.9,0.5,3.9,1.6c1,1,1.5,2.4,1.5,4.1c0,1.1-0.3,2.2-0.8,3.1c-0.5,0.9-1.2,1.7-2.1,2.2
	c-0.9,0.5-1.9,0.7-3.1,0.7c-1.4,0-2.6-0.4-3.5-1.3c-1-0.9-1.5-2-1.7-3.3h1.8c0.1,0.7,0.3,1.2,0.7,1.6c0.3,0.4,0.8,0.7,1.3,1
	c0.5,0.3,1.1,0.4,1.7,0.4c1.1,0,2.1-0.4,2.9-1.3c0.8-0.9,1.2-1.9,1.2-3.2c0-1.2-0.4-2.1-1.1-2.8c-0.7-0.7-1.7-1.1-2.9-1.1
	c-1,0-2.2,0.3-3.7,0.9l1.6-8.6H303.3z M279,572c0-2.3,0.3-4,0.7-5.3c0.5-1.2,1.2-2.2,2.1-2.8c0.9-0.7,1.9-1,3-1c1.1,0,2.1,0.3,3,1
	c0.9,0.7,1.6,1.6,2.2,2.9c0.5,1.3,0.8,3,0.8,5.2c0,2.2-0.3,3.9-0.8,5.2c-0.5,1.3-1.2,2.3-2.1,2.9c-0.9,0.7-1.9,1-3.1,1
	c-1.1,0-2.1-0.3-3-0.9c-0.9-0.7-1.6-1.6-2.1-2.8C279.2,576.1,279,574.3,279,572L279,572z M280.6,572.1c0,2,0.2,3.4,0.5,4.4
	s0.9,1.8,1.5,2.3c0.7,0.5,1.4,0.8,2.2,0.8c0.7,0,1.5-0.3,2.1-0.8c0.7-0.5,1.2-1.2,1.5-2.3c0.5-1.2,0.7-2.7,0.7-4.4s-0.2-3.1-0.6-4.3
	c-0.4-1.1-0.9-1.9-1.6-2.4c-0.7-0.5-1.4-0.8-2.1-0.8c-0.8,0-1.5,0.3-2.2,0.8c-0.7,0.5-1.2,1.3-1.5,2.3
	C280.8,568.6,280.6,570.1,280.6,572.1L280.6,572.1z"/>
<path class="st3" d="M304,395.9h3.4v17.2h-1.7v-15.6H303L304,395.9z M314.6,395.9h10.9l-9.2,17.7l-1.4-0.7l8-15.3h-8.2V395.9z
	 M329.6,409.9l1.6,0.8l-2.4,4.4l-1.1-0.5L329.6,409.9z M342,403.6c1.2,0.6,2,1.2,2.5,2s0.8,1.6,0.8,2.5c0,1.3-0.4,2.5-1.3,3.5
	c-1,1.2-2.6,1.9-4.6,1.9c-1.9,0-3.3-0.5-4.3-1.6c-1-1.1-1.5-2.3-1.5-3.6c0-0.9,0.3-1.8,0.8-2.6c0.5-0.8,1.4-1.5,2.6-2.1
	c-0.9-0.4-1.5-1-1.9-1.6c-0.4-0.7-0.6-1.3-0.6-2.1c0-0.7,0.2-1.5,0.7-2.2c0.5-0.7,1.1-1.3,1.9-1.7c0.8-0.4,1.6-0.6,2.6-0.6
	c0.9,0,1.7,0.2,2.5,0.6c0.8,0.4,1.4,1,1.8,1.7c0.4,0.7,0.7,1.5,0.7,2.2c0,0.8-0.2,1.5-0.6,2.1C343.4,402.7,342.8,403.2,342,403.6
	L342,403.6z M339.5,397.1c-0.9,0-1.7,0.3-2.4,0.9c-0.6,0.5-0.9,1.2-0.9,2c0,0.8,0.3,1.4,1,2.1c0.7,0.6,1.4,0.9,2.3,0.9
	c0.6,0,1.1-0.1,1.6-0.4c0.5-0.3,0.9-0.7,1.2-1.2c0.3-0.5,0.4-1,0.4-1.4c0-0.7-0.3-1.3-0.8-1.9C341.3,397.4,340.5,397.1,339.5,397.1
	L339.5,397.1z M339.5,404.5c-1.2,0-2.2,0.4-3,1.2c-0.8,0.8-1.2,1.6-1.2,2.7c0,0.6,0.2,1.2,0.5,1.8c0.3,0.5,0.8,1,1.4,1.3
	c0.6,0.3,1.3,0.5,2.2,0.5c1.2,0,2.2-0.4,3-1.1c0.7-0.7,1.1-1.6,1.1-2.6c0-1-0.4-1.8-1.2-2.6C341.6,404.9,340.6,404.5,339.5,404.5
	L339.5,404.5z M348.9,401.3h-1.6c0-1.7,0.6-3.1,1.7-4.2c1.1-1.1,2.4-1.6,4-1.6c1.6,0,2.9,0.5,3.8,1.5c1,1,1.5,2.2,1.5,3.6
	c0,1-0.2,1.9-0.7,2.7c-0.5,0.9-1.4,2-2.7,3.5l-4.3,4.6h8v1.6h-11.7l6.6-7.1c1.3-1.4,2.2-2.5,2.6-3.2c0.4-0.7,0.6-1.4,0.6-2.2
	c0-1-0.4-1.8-1.1-2.5c-0.7-0.7-1.6-1.1-2.7-1.1c-1.1,0-2,0.4-2.7,1.1C349.4,398.9,349,399.9,348.9,401.3L348.9,401.3z"/>
<path class="st3" d="M504.1,219.9h3.4v17.2h-1.7v-15.6h-2.7L504.1,219.9z M521.7,219.5l1.4,0.9l-4.6,7.1c0.6-0.2,1.2-0.3,1.8-0.3
	c1.4,0,2.5,0.5,3.5,1.5s1.4,2.2,1.4,3.7c0,1-0.2,1.9-0.7,2.7s-1.1,1.4-2,1.9c-0.9,0.5-1.8,0.7-2.7,0.7c-0.9,0-1.8-0.2-2.6-0.7
	c-0.8-0.5-1.4-1.1-1.9-1.9c-0.5-0.8-0.7-1.7-0.7-2.7c0-0.7,0.1-1.4,0.4-2.2c0.3-0.8,0.8-1.7,1.6-2.8L521.7,219.5z M519.8,228.6
	c-1,0-1.8,0.4-2.6,1.1c-0.7,0.7-1,1.6-1,2.6c0,1,0.3,1.9,1,2.6c0.7,0.7,1.6,1,2.6,1c1,0,1.8-0.3,2.6-1c0.7-0.7,1-1.6,1-2.6
	c0-1-0.3-1.8-1-2.6S520.9,228.6,519.8,228.6L519.8,228.6z M529.7,234l1.6,0.8l-2.4,4.4l-1.2-0.5L529.7,234z M541.7,219.5l1.4,0.9
	l-4.7,7.1c0.6-0.2,1.2-0.3,1.8-0.3c1.4,0,2.6,0.5,3.5,1.5c0.9,1,1.4,2.2,1.4,3.7c0,1-0.2,1.9-0.7,2.7c-0.5,0.8-1.1,1.4-2,1.9
	c-0.9,0.5-1.8,0.7-2.7,0.7c-1,0-1.8-0.2-2.6-0.7c-0.8-0.5-1.4-1.1-1.9-1.9c-0.5-0.8-0.7-1.7-0.7-2.7c0-0.7,0.1-1.4,0.4-2.2
	c0.3-0.8,0.8-1.7,1.5-2.8L541.7,219.5z M539.8,228.6c-1,0-1.9,0.4-2.6,1.1c-0.7,0.7-1.1,1.6-1.1,2.6c0,1,0.4,1.9,1.1,2.6
	c0.7,0.7,1.6,1,2.6,1s1.9-0.3,2.6-1c0.7-0.7,1-1.6,1-2.6c0-1-0.4-1.8-1.1-2.6S540.8,228.6,539.8,228.6L539.8,228.6z M558,219.9v1.6
	h-6.1l-0.9,4.7c0.7-0.2,1.4-0.3,2-0.3c1.6,0,2.9,0.5,3.9,1.6c1,1,1.5,2.4,1.5,4.1c0,1.1-0.3,2.2-0.8,3.1c-0.5,0.9-1.2,1.7-2.2,2.2
	c-0.9,0.5-1.9,0.7-3.1,0.7c-1.4,0-2.6-0.4-3.5-1.3c-1-0.9-1.5-2-1.7-3.3h1.8c0.1,0.7,0.4,1.2,0.7,1.6c0.3,0.4,0.7,0.7,1.2,1
	c0.5,0.3,1.1,0.4,1.7,0.4c1.1,0,2.1-0.4,2.9-1.3c0.8-0.9,1.2-1.9,1.2-3.2c0-1.2-0.4-2.1-1.1-2.8c-0.7-0.7-1.7-1.1-2.9-1.1
	c-1,0-2.2,0.3-3.7,0.9l1.6-8.6H558z"/>
<path class="st3" d="M514.1,144.2H525l-9.2,17.7l-1.4-0.7l8-15.3h-8.2V144.2z M529.2,158.2l1.6,0.8l-2.4,4.4l-1.2-0.5L529.2,158.2z
	 M544.1,144.2v1.6H538l-0.9,4.7c0.8-0.2,1.4-0.3,2-0.3c1.6,0,2.9,0.5,3.9,1.6c1,1,1.5,2.4,1.5,4.1c0,1.1-0.3,2.2-0.8,3.1
	c-0.5,0.9-1.2,1.7-2.1,2.2c-0.9,0.5-1.9,0.8-3.1,0.8c-1.4,0-2.6-0.4-3.5-1.3c-1-0.9-1.6-2-1.7-3.3h1.8c0.1,0.7,0.4,1.2,0.7,1.6
	c0.3,0.4,0.7,0.7,1.3,1c0.5,0.3,1.1,0.4,1.6,0.4c1.1,0,2.1-0.4,2.9-1.3c0.8-0.9,1.2-1.9,1.2-3.2c0-1.2-0.4-2.1-1.1-2.8
	c-0.7-0.7-1.7-1.1-2.9-1.1c-1,0-2.3,0.3-3.7,0.9l1.6-8.6H544.1z M554.8,151.9c1.2,0.6,2,1.2,2.5,2c0.5,0.7,0.8,1.6,0.8,2.5
	c0,1.3-0.4,2.5-1.3,3.5c-1.1,1.2-2.6,1.9-4.6,1.9c-1.9,0-3.3-0.5-4.3-1.6c-1-1.1-1.5-2.3-1.5-3.6c0-1,0.3-1.8,0.8-2.6
	c0.5-0.8,1.4-1.5,2.6-2.1c-0.9-0.4-1.5-1-1.9-1.6c-0.4-0.7-0.6-1.4-0.6-2.1c0-0.7,0.2-1.5,0.7-2.2c0.5-0.7,1.1-1.3,1.9-1.7
	c0.8-0.4,1.6-0.6,2.6-0.6c0.9,0,1.7,0.2,2.5,0.6c0.8,0.4,1.4,1,1.8,1.7c0.4,0.7,0.7,1.4,0.7,2.2c0,0.8-0.2,1.5-0.6,2.1
	C556.3,151,555.7,151.5,554.8,151.9L554.8,151.9z M552.3,145.4c-0.9,0-1.7,0.3-2.3,0.8c-0.6,0.6-0.9,1.2-0.9,2c0,0.8,0.3,1.4,1,2.1
	c0.7,0.6,1.4,0.9,2.3,0.9c0.6,0,1.1-0.1,1.6-0.4c0.5-0.3,0.9-0.7,1.2-1.2c0.3-0.5,0.4-1,0.4-1.5c0-0.7-0.3-1.3-0.9-1.9
	C554.2,145.7,553.4,145.4,552.3,145.4L552.3,145.4z M552.4,152.8c-1.2,0-2.2,0.4-3,1.1c-0.8,0.8-1.2,1.7-1.2,2.7
	c0,0.7,0.2,1.2,0.5,1.8c0.3,0.6,0.8,1,1.4,1.3c0.6,0.3,1.3,0.5,2.2,0.5c1.2,0,2.2-0.4,3-1.1c0.7-0.7,1.1-1.6,1.1-2.6
	c0-1-0.4-1.8-1.2-2.6S553.5,152.8,552.4,152.8L552.4,152.8z"/>
<path class="st3" d="M486.8,536.5l-0.8,0.6c-0.4-0.5-0.9-1-1.5-1.2s-1.2-0.4-2-0.4c-0.8,0-1.5,0.2-2.1,0.6c-0.7,0.4-1.2,0.9-1.5,1.5
	c-0.4,0.6-0.6,1.3-0.6,2.1c0,1.2,0.4,2.2,1.2,3c0.8,0.8,1.8,1.2,3.1,1.2c1.3,0,2.5-0.5,3.4-1.6l0.8,0.6c-0.5,0.6-1.1,1.1-1.8,1.4
	c-0.7,0.3-1.5,0.5-2.4,0.5c-1.7,0-3-0.6-4-1.7c-0.8-0.9-1.2-2.1-1.2-3.5c0-1.4,0.5-2.6,1.5-3.6s2.2-1.4,3.7-1.4
	c0.9,0,1.7,0.2,2.4,0.5C485.7,535.4,486.3,535.9,486.8,536.5L486.8,536.5z M493.1,534.5l-4,11.3h-1l4.1-11.3H493.1z M493.7,537.3h1
	l2.5,5.5l2.4-5.5h1l-4.3,9.8h-1l1.4-3.2L493.7,537.3z"/>
<path class="st3" d="M478.9,555.4h-1.3c0.2-1.1,0.7-1.9,1.4-2.5c0.7-0.6,1.5-0.9,2.4-0.9c0.7,0,1.3,0.2,1.9,0.5
	c0.6,0.3,1,0.7,1.4,1.2c0.3,0.5,0.5,1.1,0.5,1.6c0,1.1-0.6,2-1.6,2.6c0.6,0.3,1.1,0.6,1.5,1.1c0.5,0.7,0.8,1.5,0.8,2.3
	c0,0.7-0.2,1.4-0.6,2.1c-0.4,0.7-0.9,1.2-1.6,1.6c-0.7,0.4-1.4,0.5-2.2,0.5c-1.1,0-2-0.3-2.8-1c-0.7-0.7-1.2-1.6-1.5-2.8h1.3
	c0.2,0.9,0.5,1.4,1,1.8c0.5,0.5,1.2,0.7,2,0.7c0.9,0,1.7-0.3,2.2-0.9s0.9-1.2,0.9-2c0-0.5-0.1-1-0.4-1.4c-0.3-0.4-0.7-0.8-1.1-1
	c-0.5-0.2-1.2-0.3-2.2-0.4v-1.2c0.6,0,1.1-0.1,1.6-0.3c0.5-0.2,0.9-0.5,1-0.8c0.2-0.3,0.3-0.7,0.3-1c0-0.6-0.2-1-0.7-1.5
	c-0.4-0.4-1-0.6-1.7-0.6c-0.5,0-1,0.1-1.4,0.5C479.5,554.1,479.2,554.7,478.9,555.4L478.9,555.4z M489.1,563l1.2,0.6l-1.8,3.3
	l-0.9-0.4L489.1,563z M498.3,558.3c0.9,0.5,1.5,0.9,1.9,1.5c0.4,0.5,0.6,1.2,0.6,1.9c0,1-0.3,1.9-1,2.6c-0.8,0.9-2,1.4-3.4,1.4
	c-1.4,0-2.5-0.4-3.2-1.2s-1.1-1.7-1.1-2.7c0-0.7,0.2-1.4,0.6-1.9c0.4-0.6,1-1.1,1.9-1.6c-0.6-0.3-1.1-0.7-1.4-1.2
	c-0.3-0.5-0.5-1-0.5-1.6c0-0.6,0.2-1.1,0.5-1.6s0.8-1,1.4-1.2c0.6-0.3,1.2-0.5,1.9-0.5s1.3,0.2,1.9,0.5c0.6,0.3,1,0.7,1.3,1.2
	c0.3,0.5,0.5,1.1,0.5,1.7c0,0.6-0.2,1.1-0.5,1.6C499.4,557.5,499,557.9,498.3,558.3L498.3,558.3z M496.4,553.4
	c-0.7,0-1.3,0.2-1.7,0.6c-0.5,0.4-0.7,0.9-0.7,1.5c0,0.6,0.3,1.1,0.7,1.5c0.5,0.5,1.1,0.7,1.8,0.7c0.4,0,0.8-0.1,1.2-0.3
	c0.4-0.2,0.7-0.5,0.9-0.9c0.2-0.4,0.3-0.7,0.3-1.1c0-0.5-0.2-1-0.6-1.4C497.8,553.6,497.2,553.4,496.4,553.4L496.4,553.4z
	 M496.5,558.9c-0.9,0-1.6,0.3-2.2,0.9c-0.6,0.6-0.9,1.2-0.9,2c0,0.5,0.1,0.9,0.4,1.3s0.6,0.8,1.1,1c0.5,0.2,1,0.3,1.6,0.3
	c0.9,0,1.7-0.3,2.2-0.9c0.6-0.5,0.8-1.2,0.8-1.9s-0.3-1.4-0.9-1.9C498,559.2,497.3,558.9,496.5,558.9L496.5,558.9z M508,552.1l1,0.7
	l-3.5,5.3c0.5-0.1,0.9-0.2,1.3-0.2c1,0,1.9,0.4,2.6,1.1c0.7,0.7,1.1,1.6,1.1,2.7c0,0.7-0.2,1.4-0.5,2c-0.3,0.6-0.8,1.1-1.5,1.4
	c-0.6,0.4-1.3,0.5-2,0.5c-0.7,0-1.4-0.2-2-0.5c-0.6-0.3-1.1-0.8-1.4-1.4c-0.4-0.6-0.5-1.3-0.5-2c0-0.5,0.1-1.1,0.3-1.7
	c0.2-0.6,0.6-1.3,1.1-2.1L508,552.1z M506.6,559c-0.8,0-1.4,0.3-1.9,0.8c-0.5,0.5-0.8,1.2-0.8,1.9c0,0.7,0.3,1.4,0.8,1.9
	c0.5,0.5,1.2,0.8,1.9,0.8c0.7,0,1.4-0.3,1.9-0.8c0.5-0.5,0.8-1.2,0.8-1.9c0-0.8-0.3-1.4-0.8-1.9C508,559.2,507.3,559,506.6,559
	L506.6,559z"/>
<rect x="226.8" y="251.9" class="st0" width="31.5" height="48"/>
<path class="st0" d="M223.6,278.2l-18.2,1.1v13.8l18.2,1.1V278.2z M208.1,293.3v-14.1"/>
<path class="st0" d="M223.6,256.8l-18.2,1.1v13.8l18.2,1.1V256.8z M208.1,271.9v-14.1"/>
<path class="st0" d="M261.1,278.2l18.2,1.1v13.8l-18.2,1.1V278.2z M276.5,293.3v-14.1"/>
<path class="st0" d="M261.1,256.8l18.2,1.1v13.8l-18.2,1.1V256.8z M276.5,271.9v-14.1"/>
<path class="st0" d="M250.2,249.6l-1.1-18.1h-13.9l-1.1,18.1H250.2z M235,234.2h14.2"/>
<path class="st0" d="M234.8,302.2l1.1,18.1h13.9l1.1-18.1H234.8z M250,317.7h-14.2"/>
<rect x="187.5" y="469.5" class="st0" width="32.6" height="26.2"/>
<rect x="187.5" y="415" class="st0" width="32.6" height="54.5"/>
<rect x="187.5" y="383.8" class="st0" width="32.6" height="31.2"/>
<path class="st0" d="M211.4,441.6h-13c-3.4,0-6.2,2.7-6.2,6.2v13c0,3.4,2.8,6.2,6.2,6.2h13c3.4,0,6.2-2.8,6.2-6.2v-13
	C217.6,444.4,214.8,441.6,211.4,441.6L211.4,441.6z"/>
<path class="st0" d="M197.2,460.6c-0.9,0-1.6,0.7-1.6,1.6c0,0.9,0.7,1.6,1.6,1.6c0.9,0,1.6-0.7,1.6-1.6
	C198.8,461.3,198.1,460.6,197.2,460.6L197.2,460.6z"/>
<line class="st0" x1="217.4" y1="420.6" x2="192.1" y2="420.6"/>
<line class="st0" x1="217.4" y1="423.4" x2="192.1" y2="423.4"/>
<line class="st0" x1="217.4" y1="426.1" x2="192.1" y2="426.1"/>
<line class="st0" x1="217.4" y1="428.8" x2="192.1" y2="428.8"/>
<line class="st0" x1="217.4" y1="431.5" x2="192.1" y2="431.5"/>
<line class="st0" x1="217.4" y1="434.2" x2="192.1" y2="434.2"/>
<line class="st0" x1="217.4" y1="436.9" x2="192.1" y2="436.9"/>
<rect x="192.1" y="387" class="st0" width="25.7" height="25.6"/>
<path class="st0" d="M216.2,388.4h-4.5v3.1c0.6,0.2,1.1,0.7,1.4,1.3h3.1V388.4z"/>
<path class="st0" d="M210.2,388.4h-4.5v4.5h3.1c0.2-0.6,0.7-1.1,1.4-1.3V388.4z"/>
<path class="st0" d="M216.2,394.4h-3.1c-0.2,0.6-0.7,1.1-1.4,1.3v3.1h4.5V394.4z"/>
<path class="st0" d="M208.9,394.4h-3.1v4.5h4.5v-3.1C209.6,395.5,209.1,395.1,208.9,394.4L208.9,394.4z"/>
<path class="st0" d="M211,391.4c-1.2,0-2.2,1-2.2,2.2c0,1.2,1,2.2,2.2,2.2c1.2,0,2.2-1,2.2-2.2C213.2,392.4,212.2,391.4,211,391.4
	L211,391.4z"/>
<path class="st0" d="M216.2,400.8h-4.5v3.1c0.6,0.2,1.1,0.7,1.4,1.3h3.1V400.8z"/>
<path class="st0" d="M210.2,400.8h-4.5v4.5h3.1c0.2-0.6,0.7-1.1,1.4-1.3V400.8z"/>
<path class="st0" d="M216.2,406.8h-3.1c-0.2,0.6-0.7,1.1-1.4,1.3v3.1h4.5V406.8z"/>
<path class="st0" d="M208.9,406.8h-3.1v4.5h4.5v-3.1C209.6,407.9,209.1,407.5,208.9,406.8L208.9,406.8z"/>
<path class="st0" d="M211,403.8c-1.2,0-2.2,1-2.2,2.2c0,1.2,1,2.2,2.2,2.2c1.2,0,2.2-1,2.2-2.2C213.2,404.8,212.2,403.8,211,403.8
	L211,403.8z"/>
<path class="st0" d="M204.2,388.4h-4.5v3.1c0.6,0.2,1.1,0.7,1.4,1.3h3.1V388.4z"/>
<path class="st0" d="M198.3,388.4h-4.5v4.5h3.1c0.3-0.6,0.7-1.1,1.4-1.3V388.4z"/>
<path class="st0" d="M204.2,394.4h-3.1c-0.2,0.6-0.7,1.1-1.4,1.3v3.1h4.5V394.4z"/>
<path class="st0" d="M196.9,394.4h-3.1v4.5h4.5v-3.1C197.6,395.5,197.1,395.1,196.9,394.4L196.9,394.4z"/>
<path class="st0" d="M199,391.4c-1.2,0-2.2,1-2.2,2.2c0,1.2,1,2.2,2.2,2.2c1.2,0,2.2-1,2.2-2.2C201.2,392.4,200.2,391.4,199,391.4
	L199,391.4z"/>
<path class="st0" d="M204.2,400.8h-4.5v3.1c0.6,0.2,1.1,0.7,1.4,1.3h3.1V400.8z"/>
<path class="st0" d="M198.3,400.8h-4.5v4.5h3.1c0.3-0.6,0.7-1.1,1.4-1.3V400.8z"/>
<path class="st0" d="M204.2,406.8h-3.1c-0.2,0.6-0.7,1.1-1.4,1.3v3.1h4.5V406.8z"/>
<path class="st0" d="M196.9,406.8h-3.1v4.5h4.5v-3.1C197.6,407.9,197.1,407.5,196.9,406.8L196.9,406.8z"/>
<path class="st0" d="M199,403.8c-1.2,0-2.2,1-2.2,2.2c0,1.2,1,2.2,2.2,2.2c1.2,0,2.2-1,2.2-2.2C201.2,404.8,200.2,403.8,199,403.8
	L199,403.8z"/>
<line class="st0" x1="190.1" y1="449.9" x2="190.1" y2="459.2"/>
<line class="st0" x1="188.1" y1="457.2" x2="192.3" y2="457.2"/>
<line class="st0" x1="187.5" y1="452.1" x2="192.3" y2="452.1"/>
<line class="st0" x1="190.1" y1="454.2" x2="200.7" y2="445.8"/>
<rect x="220.1" y="469.5" class="st0" width="29.9" height="26.2"/>
<rect x="187.5" y="348.7" class="st0" width="32.6" height="35.1"/>
<polygon class="st0" points="270.9,469.5 250,469.5 250,495.7 279.9,495.7 279.9,478.5 "/>
<rect x="495" y="388.6" class="st0" width="25" height="24.5"/>
<rect x="538.5" y="346.6" class="st0" width="34.4" height="78.5"/>
<path class="st0" d="M538.5,346.6v34.5h-34.4v-21.5c0,0,0.1,0,0.1,0c5.1-0.7,7.9-1.9,7.9-3.4c0-1-4.1-2.5-8-3.5v-6.1H538.5z"/>
<path class="st0" d="M504.1,346.6v6.1c-1.7-0.5-3.4-0.8-4.6-1c-3.8-0.5-7.9-0.9-9.8,1.8c0,0,9.3,6.7,14.4,6.1v21.5h-30.7v-34.5
	H504.1z"/>
<path class="st0" d="M572.9,346.6v51.7h-6.4v-3.5c1.1,0.7,2,0.9,2.6,0.6c1.2-0.7-1-9.4-2.6-12.8v-10.6c0.2-2.1,0.3-4.3,0.1-5.7
	c-0.1-0.6-0.1-1.2-0.1-1.7v-17.9H572.9z"/>
<path class="st0" d="M566.5,352.9h-1.2c-1.5-1.3-9.4-2.4-12.9-2.3c-3.4,0.1-7,0.3-8.8,2.3h-5.2v-6.3h28V352.9z"/>
<path class="st0" d="M538.5,352.9h-8c-2.9-0.9-8.3-1.5-11-1.4c-2.9,0.1-5.9,0.2-7.9,1.4h-6.9c-0.2-0.1-0.5-0.1-0.7-0.2v-6.1h34.4
	V352.9z"/>
<path class="st0" d="M490.3,352.9h-16.8v-6.3h30.7v6.1c-1.7-0.5-3.4-0.8-4.6-1C496.1,351.3,492.3,350.9,490.3,352.9L490.3,352.9z"/>
<path class="st0" d="M560,375.2c0,0-1.1,11.4,2.1,15.3s5.8,5.6,7,4.9c1.2-0.7-1-9.4-2.6-12.8C565,379,563.2,375.4,560,375.2
	L560,375.2z"/>
<path class="st0" d="M563,357.1c0,0-5,10.4-3.3,15.1c1.7,4.7,3.5,7.2,4.9,6.9c1.4-0.3,2.3-9.2,2-12.9
	C566.4,362.4,566,358.4,563,357.1L563,357.1z"/>
<path class="st0" d="M543.1,353.7c0,0,10.3,5.4,15.3,3.9c4.9-1.4,7.5-3.1,7.3-4.5c-0.2-1.4-9.2-2.7-13.1-2.6
	C548.6,350.7,544.5,350.9,543.1,353.7L543.1,353.7z"/>
<path class="st0" d="M510.1,354.6c0,0,10.4,5.4,15.3,3.9c4.9-1.4,7.5-3,7.3-4.5c-0.2-1.4-9.2-2.7-13.1-2.6
	C515.7,351.5,511.6,351.7,510.1,354.6L510.1,354.6z"/>
<path class="st0" d="M489.7,353.5c0,0,9.4,6.8,14.5,6.1c5.1-0.7,7.9-1.9,7.9-3.4c0-1.4-8.7-4-12.6-4.5
	C495.8,351.2,491.6,350.8,489.7,353.5L489.7,353.5z"/>
<path class="st0" d="M473.2,362c0,0,9.9,0.7,13.3-2.1c3.3-2.8,4.8-4.9,4.1-6c-0.7-1-8.2,1-11.1,2.4
	C476.5,357.7,473.4,359.2,473.2,362L473.2,362z"/>
<rect x="453.8" y="446.6" class="st0" width="38.3" height="24.4"/>
<rect x="492.1" y="446.6" class="st0" width="38.3" height="24.4"/>
<rect x="530.4" y="446.6" class="st0" width="38.4" height="24.4"/>
<line class="st0" x1="557.1" y1="458.8" x2="465.4" y2="458.8"/>
<rect x="448.5" y="312.8" class="st0" width="124.4" height="33.8"/>
<line class="st0" x1="572.9" y1="328" x2="448.5" y2="328"/>
<line class="st0" x1="531.3" y1="314.8" x2="515.1" y2="342.3"/>
<line class="st0" x1="519.6" y1="314.4" x2="503.6" y2="341.5"/>
<line class="st0" x1="560.6" y1="312.8" x2="560.6" y2="343.7"/>
<line class="st0" x1="553.7" y1="312.8" x2="553.7" y2="343.5"/>
<line class="st0" x1="544.4" y1="312.8" x2="544.4" y2="343.5"/>
<line class="st0" x1="481.2" y1="312.8" x2="481.2" y2="343.2"/>
<line class="st0" x1="474.3" y1="312.8" x2="474.3" y2="343.6"/>
<line class="st0" x1="465.1" y1="312.8" x2="465.1" y2="343.8"/>
<path class="st0" d="M446.6,414.7l15.9-16.1c1.4-1.4,1.4-3.8,0-5.2l-14.2-14c-1.4-1.4-3.8-1.4-5.2,0l-15.9,16.1
	c-1.4,1.4-1.4,3.8,0,5.2l14.2,14C442.8,416.2,445.2,416.2,446.6,414.7L446.6,414.7z"/>
<path class="st0" d="M463.6,392.3L463.6,392.3c0.7-0.7,0.6-1.8,0-2.4l-11.8-11.6c-0.7-0.7-1.7-0.7-2.4,0l0,0c-0.7,0.7-0.7,1.7,0,2.4
	l11.8,11.6C461.9,392.9,463,392.9,463.6,392.3L463.6,392.3z"/>
<path class="st0" d="M440.2,416L440.2,416c0.7-0.7,0.7-1.8,0-2.4L428.4,402c-0.7-0.7-1.7-0.7-2.4,0l0,0c-0.7,0.7-0.7,1.7,0,2.4
	l11.8,11.6C438.5,416.6,439.5,416.6,440.2,416L440.2,416z"/>
<path class="st0" d="M446,378c0.8-0.3,1.2-1.1,0.9-1.8c-0.3-0.8-1.1-1.2-1.8-0.9c-2.6,0.9-5,2.1-7.3,3.5c-2.3,1.5-4.4,3.2-6.3,5.1
	c-1.9,1.9-3.6,4-5,6.3c-1.4,2.3-2.6,4.8-3.4,7.3c-0.3,0.8,0.1,1.6,0.9,1.8s1.6-0.1,1.9-0.9c0.8-2.4,1.8-4.6,3.1-6.7
	c1.3-2.1,2.8-4.1,4.6-5.8c1.8-1.8,3.7-3.3,5.8-4.7C441.4,379.9,443.7,378.9,446,378L446,378z"/>
<rect x="462.2" y="247" class="st0" width="110.7" height="44.6"/>
<polygon class="st0" points="544.3,256.2 569.9,256.2 569.9,283.9 548.6,283.9 544.3,272.7 "/>
<polygon class="st0" points="465.3,249.2 535.1,249.2 551.6,291.6 465.3,291.6 "/>
<polygon class="st8" points="528.2,252.4 535.3,249.6 551.6,291.6 "/>
<g>
	<path class="st0" d="M560.7,523.9c6.3,0,11.3,7.3,11.3,16.4c0,9-5.1,16.4-11.3,16.4c-6.3,0-11.3-7.3-11.3-16.4
		C549.4,531.3,554.5,523.9,560.7,523.9L560.7,523.9z"/>
	<path class="st0" d="M571.5,527.6h-3.7c1.7,2,3,4.7,3.7,7.8V527.6z M567.8,553h3.7v-7.7C570.8,548.3,569.6,551,567.8,553L567.8,553
		z"/>
	<path class="st0" d="M549.7,536.6c0,0,4.2-7.2,8.4-6.2c4.2,1,3.1,3.9,6.2,5.8c3,1.9,6.4,0.8,7.7,6.9"/>
	<path class="st0" d="M562,547.5c1.2,0,2.2,1,2.2,2.2c0,1.2-1,2.2-2.2,2.2c-1.2,0-2.2-1-2.2-2.2C559.8,548.5,560.8,547.5,562,547.5
		L562,547.5z"/>
</g>
<g>
	<path class="st0" d="M548.9,565.4c5.8,0,10.1,1.9,12.6,4.8l-0.8,0.3v11.8l0.8,0.3c-2.5,2.9-6.8,4.7-12.6,4.7
		c-9.4,0-19.2-6.5-19.2-11C529.7,571.9,539.5,565.4,548.9,565.4L548.9,565.4z"/>
	<rect x="558.5" y="572.2" class="st0" width="9.4" height="7.5"/>
	<polygon class="st0" points="560.7,570.4 571.5,566.1 571.5,586.6 560.7,582.3 560.7,579.8 567.9,579.8 567.9,572.2 560.7,572.2
		"/>
</g>
<line class="st0" x1="572.9" y1="68.6" x2="572.9" y2="109.1"/>
<line class="st0" x1="187.5" y1="68.6" x2="187.5" y2="109.1"/>
<polygon class="st4" points="575.4,75.8 576,76.2 571.1,85.7 569.8,85.1 574.8,75.5 575.4,75.8 "/>
<rect x="187.5" y="79.9" class="st5" width="385.4" height="1.4"/>
<polygon class="st4" points="190,75.8 189.4,75.5 184.4,85.1 185.7,85.7 190.6,76.2 190,75.8 "/>
<path class="st3" d="M362.2,58.8l1.4,0.9l-4.7,7c0.6-0.2,1.2-0.3,1.8-0.3c1.4,0,2.6,0.5,3.5,1.5c1,1,1.4,2.2,1.4,3.6
	c0,1-0.2,1.9-0.7,2.7c-0.5,0.8-1.1,1.4-2,1.9c-0.9,0.5-1.8,0.7-2.7,0.7c-0.9,0-1.8-0.2-2.6-0.7c-0.8-0.5-1.4-1.1-1.9-1.9
	c-0.5-0.8-0.7-1.7-0.7-2.6c0-0.7,0.1-1.4,0.4-2.2c0.3-0.8,0.8-1.7,1.5-2.8L362.2,58.8z M360.3,68c-1,0-1.9,0.3-2.6,1
	c-0.7,0.7-1.1,1.6-1.1,2.6c0,1,0.4,1.8,1.1,2.6c0.7,0.7,1.6,1,2.6,1s1.9-0.3,2.6-1c0.7-0.7,1.1-1.6,1.1-2.6c0-1-0.4-1.9-1.1-2.6
	S361.2,68,360.3,68L360.3,68z M371.3,76.9l-1.4-0.9l4.6-7c-0.6,0.2-1.2,0.3-1.8,0.3c-1.4,0-2.5-0.5-3.5-1.5c-0.9-1-1.4-2.2-1.4-3.7
	c0-1,0.2-1.9,0.7-2.7c0.5-0.8,1.1-1.4,2-1.9c0.9-0.5,1.8-0.7,2.7-0.7c0.9,0,1.8,0.2,2.6,0.7c0.8,0.5,1.4,1.1,1.9,1.9
	c0.5,0.8,0.7,1.7,0.7,2.6c0,0.7-0.1,1.4-0.4,2.2c-0.3,0.8-0.8,1.7-1.5,2.8L371.3,76.9z M373.1,67.8c1,0,1.9-0.3,2.6-1
	c0.7-0.7,1-1.6,1-2.6c0-1-0.4-1.8-1.1-2.6s-1.6-1.1-2.6-1.1s-1.8,0.4-2.6,1.1c-0.7,0.7-1.1,1.6-1.1,2.6c0,1,0.4,1.9,1.1,2.6
	C371.3,67.4,372.1,67.8,373.1,67.8L373.1,67.8z M391.7,59.3v1.6h-6.1l-0.9,4.7c0.7-0.2,1.4-0.3,2-0.3c1.6,0,2.9,0.5,3.9,1.6
	c1,1,1.5,2.4,1.5,4c0,1.1-0.3,2.2-0.8,3.1c-0.5,1-1.2,1.7-2.1,2.2c-0.9,0.5-1.9,0.7-3.1,0.7c-1.4,0-2.6-0.4-3.5-1.3s-1.5-2-1.7-3.3
	h1.8c0.1,0.7,0.4,1.2,0.7,1.6c0.3,0.4,0.7,0.7,1.2,1c0.5,0.2,1.1,0.4,1.7,0.4c1.1,0,2.1-0.4,2.9-1.3c0.8-0.9,1.2-1.9,1.2-3.2
	c0-1.1-0.4-2.1-1.1-2.8c-0.7-0.7-1.7-1.1-2.9-1.1c-1,0-2.2,0.3-3.7,0.9l1.6-8.6H391.7z M405,59.3v1.6h-6.1l-0.9,4.7
	c0.8-0.2,1.4-0.3,2-0.3c1.6,0,2.9,0.5,3.9,1.6c1,1,1.5,2.4,1.5,4c0,1.1-0.3,2.2-0.8,3.1c-0.5,1-1.2,1.7-2.1,2.2
	c-0.9,0.5-1.9,0.7-3.1,0.7c-1.4,0-2.6-0.4-3.5-1.3c-0.9-0.9-1.5-2-1.7-3.3h1.8c0.1,0.7,0.4,1.2,0.7,1.6c0.3,0.4,0.7,0.7,1.3,1
	c0.5,0.2,1.1,0.4,1.6,0.4c1.1,0,2.1-0.4,2.9-1.3c0.8-0.9,1.2-1.9,1.2-3.2c0-1.1-0.4-2.1-1.1-2.8c-0.7-0.7-1.7-1.1-2.9-1.1
	c-1,0-2.2,0.3-3.7,0.9l1.6-8.6H405z"/>
<line class="st0" x1="123.3" y1="592.6" x2="230.7" y2="592.6"/>
<line class="st0" x1="123.3" y1="128.7" x2="187.5" y2="128.7"/>
<polygon class="st4" points="128.5,595.1 128.8,595.7 138.4,590.7 137.8,589.5 128.2,594.5 128.5,595.1 "/>
<rect x="132.6" y="128.7" class="st5" width="1.4" height="463.9"/>
<polygon class="st4" points="128.5,131.2 128.2,130.6 137.8,125.6 138.4,126.9 128.8,131.8 128.5,131.2 "/>
<path class="st3" d="M120.2,378.1c0.6-1.2,1.2-2,2-2.5c0.7-0.5,1.6-0.8,2.5-0.8c1.3,0,2.5,0.5,3.5,1.3c1.2,1.1,1.9,2.6,1.9,4.6
	c0,1.9-0.5,3.3-1.6,4.3c-1.1,1-2.3,1.5-3.6,1.5c-1,0-1.8-0.3-2.6-0.8c-0.8-0.5-1.5-1.4-2.1-2.6c-0.4,0.9-1,1.5-1.6,1.9
	s-1.4,0.6-2.1,0.6c-0.7,0-1.5-0.2-2.2-0.7c-0.7-0.4-1.3-1-1.7-1.8c-0.4-0.8-0.6-1.6-0.6-2.6c0-0.9,0.2-1.7,0.6-2.5
	c0.4-0.8,1-1.4,1.7-1.8c0.7-0.4,1.4-0.7,2.2-0.7c0.8,0,1.5,0.2,2.1,0.6C119.2,376.6,119.8,377.3,120.2,378.1L120.2,378.1z
	 M113.7,380.6c0,1,0.3,1.7,0.9,2.4c0.5,0.6,1.2,0.9,2,0.9c0.8,0,1.4-0.3,2.1-1c0.6-0.7,0.9-1.4,0.9-2.3c0-0.6-0.1-1.1-0.4-1.6
	c-0.3-0.5-0.7-0.9-1.2-1.2c-0.5-0.3-1-0.4-1.4-0.4c-0.7,0-1.3,0.3-1.9,0.9C113.9,378.7,113.7,379.6,113.7,380.6L113.7,380.6z
	 M121.1,380.6c0,1.2,0.4,2.2,1.1,3c0.8,0.8,1.7,1.2,2.7,1.2c0.7,0,1.2-0.2,1.8-0.5c0.5-0.3,1-0.8,1.3-1.4c0.3-0.6,0.5-1.3,0.5-2.2
	c0-1.2-0.4-2.2-1.1-3c-0.7-0.8-1.6-1.1-2.6-1.1c-1,0-1.8,0.4-2.6,1.2C121.4,378.5,121.1,379.4,121.1,380.6L121.1,380.6z M112,365.2
	l0.9-1.4l7.1,4.6c-0.2-0.6-0.3-1.2-0.3-1.8c0-1.4,0.5-2.5,1.5-3.5c1-1,2.2-1.4,3.7-1.4c1,0,1.9,0.2,2.7,0.7c0.8,0.5,1.4,1.1,1.9,2
	c0.5,0.9,0.7,1.8,0.7,2.7c0,0.9-0.2,1.8-0.7,2.6c-0.5,0.8-1.1,1.4-1.9,1.9c-0.8,0.5-1.7,0.7-2.7,0.7c-0.7,0-1.4-0.1-2.2-0.4
	c-0.8-0.3-1.7-0.8-2.8-1.5L112,365.2z M121.1,367.1c0,1,0.4,1.8,1.1,2.6c0.7,0.7,1.6,1,2.6,1s1.9-0.3,2.6-1c0.7-0.7,1.1-1.6,1.1-2.6
	c0-1-0.4-1.9-1.1-2.6c-0.7-0.7-1.6-1-2.6-1s-1.8,0.3-2.6,1C121.5,365.2,121.1,366.1,121.1,367.1L121.1,367.1z M112.4,356.3v-3.4
	h17.2v1.7h-15.6v2.7L112.4,356.3z M121,346.6c-2.3,0-4-0.3-5.3-0.7c-1.2-0.5-2.2-1.2-2.8-2.1c-0.7-0.9-1-1.9-1-3c0-1.1,0.3-2.1,1-3
	c0.7-0.9,1.6-1.6,2.9-2.2c1.3-0.5,3-0.8,5.2-0.8s3.9,0.3,5.2,0.8c1.3,0.5,2.3,1.2,2.9,2.1c0.7,0.9,1,1.9,1,3.1c0,1.1-0.3,2.1-0.9,3
	c-0.7,0.9-1.6,1.6-2.8,2.1C125.1,346.4,123.3,346.6,121,346.6L121,346.6z M121.1,345c2,0,3.4-0.2,4.4-0.5s1.8-0.9,2.3-1.5
	c0.5-0.7,0.8-1.4,0.8-2.2c0-0.7-0.3-1.5-0.8-2.1c-0.5-0.7-1.2-1.2-2.3-1.5c-1.2-0.5-2.7-0.7-4.4-0.7c-1.7,0-3.1,0.2-4.3,0.6
	c-1.1,0.4-1.9,0.9-2.4,1.6c-0.5,0.7-0.8,1.4-0.8,2.1c0,0.8,0.3,1.5,0.8,2.2c0.5,0.7,1.3,1.2,2.3,1.5
	C117.6,344.8,119.1,345,121.1,345L121.1,345z"/>
<rect x="216.6" y="113.6" class="st6" width="151.4" height="10.9"/>
<rect x="397.2" y="113.6" class="st6" width="165.2" height="10.9"/>
<rect x="219.8" y="187.2" class="st6" width="61.5" height="10.9"/>
<rect x="478.5" y="187.2" class="st6" width="60.6" height="10.9"/>
<polygon class="st0" points="270.9,469.5 250,469.5 250,495.7 279.9,495.7 279.9,478.5 "/>
<path class="st2" d="M305.6,495.7c0,27.8,22.5,50.2,50.2,50.2v-50.2"/>
<rect id="_x3C_Slice_x3E__2_" x="-56.1" y="-39" class="st9" width="908" height="820"/>
<rect id="_x3C_Slice_x3E__5_" x="-24.1" y="-35" class="st9" width="768" height="788"/>
<g>
	<path class="st3" d="M225.8,143.8c0,2.3-1.6,3.3-3.1,3.3c-1.7,0-3-1.2-3-3.2c0-2.1,1.4-3.3,3.1-3.3
		C224.6,140.6,225.8,141.9,225.8,143.8z M220.8,143.9c0,1.4,0.8,2.4,1.9,2.4c1.1,0,1.9-1,1.9-2.4c0-1.1-0.5-2.4-1.9-2.4
		C221.4,141.4,220.8,142.7,220.8,143.9z"/>
	<path class="st3" d="M232,138.6c-0.3,0.1-0.9,0.2-1.3,0.3c-1,0.2-1.8,0.5-2.2,1.2c-0.4,0.6-0.6,1.4-0.7,2.1h0
		c0.4-0.9,1.3-1.4,2.2-1.4c1.5,0,2.7,1.1,2.7,3.1c0,2.1-1.1,3.3-2.9,3.3c-2.2,0-2.9-2.1-2.9-4.2c0-1.4,0.3-2.6,1-3.5
		c0.6-0.9,1.5-1.3,2.7-1.5c0.5-0.1,1.1-0.2,1.6-0.3L232,138.6z M229.8,141.5c-0.7,0-1.2,0.4-1.4,0.9c-0.2,0.4-0.3,0.8-0.3,1.3
		c0,1,0.5,2.5,1.8,2.5c1.3,0,1.7-1.2,1.7-2.4C231.5,142.9,231.1,141.5,229.8,141.5z"/>
	<path class="st3" d="M235.2,140.7v5.4h2.2v-5.4h1.1v5.4h2.2v-5.4h1.1v5.4l0.6,0l-0.1,2.8h-0.9l-0.1-2h-7.4v-6.3H235.2z"/>
	<path class="st3" d="M247.4,147l-0.1-0.8h0c-0.4,0.5-1,0.9-1.9,0.9c-1.3,0-1.9-0.9-1.9-1.8c0-1.5,1.4-2.4,3.8-2.3v-0.1
		c0-0.5-0.1-1.5-1.4-1.5c-0.6,0-1.2,0.2-1.6,0.5l-0.3-0.8c0.5-0.3,1.3-0.6,2.1-0.6c1.9,0,2.4,1.3,2.4,2.6v2.4c0,0.5,0,1.1,0.1,1.5
		H247.4z M247.2,143.8c-1.2,0-2.7,0.2-2.7,1.4c0,0.7,0.5,1.1,1.1,1.1c0.8,0,1.3-0.5,1.5-1.1c0-0.1,0.1-0.2,0.1-0.4V143.8z"/>
	<path class="st3" d="M254.8,147h-1.1v-2.6h-0.8c-0.5,0-0.8,0.1-1.1,0.4c-0.5,0.4-0.6,1.2-0.9,1.8c-0.1,0.2-0.2,0.4-0.3,0.5h-1.2
		c0.1-0.2,0.3-0.4,0.4-0.7c0.3-0.6,0.4-1.4,1-1.9c0.2-0.2,0.4-0.3,0.7-0.4v0c-0.8-0.1-1.7-0.6-1.7-1.6c0-0.7,0.4-1.1,0.8-1.4
		c0.5-0.3,1.3-0.4,2.1-0.4c0.8,0,1.5,0.1,2,0.1V147z M253.7,141.4c-0.3,0-0.5-0.1-0.9-0.1c-0.8,0-1.7,0.2-1.7,1.1
		c0,0.8,1,1.1,1.7,1.1c0.5,0,0.7,0,1,0V141.4z"/>
	<path class="st3" d="M264.6,140.7v6.3h-1.1v-5.4h-2.9v5.4h-1.1v-6.3H264.6z"/>
	<path class="st3" d="M271.2,140.7v6.3h-1.1v-5.4H268v1.6c0,1.8-0.2,3-1,3.5c-0.3,0.2-0.7,0.4-1.2,0.4l-0.1-0.9
		c0.2,0,0.5-0.1,0.6-0.3c0.6-0.4,0.6-1.3,0.6-2.7v-2.5H271.2z"/>
	<path class="st3" d="M278.8,143.8c0,2.3-1.6,3.3-3.1,3.3c-1.7,0-3-1.2-3-3.2c0-2.1,1.4-3.3,3.1-3.3
		C277.6,140.6,278.8,141.9,278.8,143.8z M273.8,143.9c0,1.4,0.8,2.4,1.9,2.4c1.1,0,1.9-1,1.9-2.4c0-1.1-0.5-2.4-1.9-2.4
		C274.4,141.4,273.8,142.7,273.8,143.9z"/>
	<path class="st3" d="M281.3,140.7v5.4h2.2v-5.4h1.1v5.4h2.2v-5.4h1.1v5.4l0.6,0l-0.1,2.8h-0.9l-0.1-2h-7.4v-6.3H281.3z"/>
	<path class="st3" d="M293.5,147l-0.1-0.8h0c-0.4,0.5-1,0.9-1.9,0.9c-1.3,0-1.9-0.9-1.9-1.8c0-1.5,1.4-2.4,3.8-2.3v-0.1
		c0-0.5-0.1-1.5-1.4-1.5c-0.6,0-1.2,0.2-1.6,0.5l-0.3-0.8c0.5-0.3,1.3-0.6,2.1-0.6c1.9,0,2.4,1.3,2.4,2.6v2.4c0,0.5,0,1.1,0.1,1.5
		H293.5z M293.3,143.8c-1.2,0-2.7,0.2-2.7,1.4c0,0.7,0.5,1.1,1.1,1.1c0.8,0,1.3-0.5,1.5-1.1c0-0.1,0.1-0.2,0.1-0.4V143.8z"/>
	<path class="st3" d="M301.1,140.7v5.4l0.7,0l-0.1,2.8h-0.9l-0.1-2h-4.4l-0.1,2h-0.9l-0.1-2.8l0.5,0c0.3-0.4,0.5-0.8,0.6-1.3
		c0.2-0.8,0.4-1.6,0.4-2.5v-1.6H301.1z M297.9,142.6c0,0.8-0.1,1.6-0.3,2.3c-0.1,0.4-0.3,0.8-0.5,1.2h2.9v-4.5h-2.1V142.6z"/>
	<path class="st3" d="M304.2,140.7v2.1c0.3-0.1,0.7-0.1,1-0.1c1.4,0,2.9,0.4,2.9,2.1c0,0.7-0.3,1.1-0.7,1.4
		c-0.7,0.6-1.8,0.7-2.7,0.7c-0.6,0-1.2,0-1.7-0.1v-6.3H304.2z M304.2,146.2c0.2,0,0.5,0.1,0.8,0.1c0.9,0,2-0.3,2-1.3
		c0-1.1-1.1-1.3-2-1.3c-0.3,0-0.6,0-0.8,0.1V146.2z"/>
	<path class="st3" d="M230.4,159H224l-0.7,4.3c0.4-0.1,0.8-0.1,1.4-0.1c1.3,0,2.6,0.3,3.6,0.9c1.3,0.8,2.4,2.2,2.4,4.3
		c0,3.3-2.6,5.8-6.3,5.8c-1.8,0-3.4-0.5-4.2-1l0.6-1.7c0.7,0.4,2.1,0.9,3.6,0.9c2.2,0,4-1.4,4-3.7c0-2.2-1.5-3.7-4.9-3.7
		c-1,0-1.7,0.1-2.3,0.2l1.1-8.1h8.1V159z"/>
	<path class="st3" d="M233.7,174v-1.4l1.8-1.7c4.3-4.1,6.3-6.3,6.3-8.8c0-1.7-0.8-3.3-3.4-3.3c-1.5,0-2.8,0.8-3.6,1.4l-0.7-1.6
		c1.2-1,2.8-1.7,4.8-1.7c3.6,0,5.2,2.5,5.2,4.9c0,3.1-2.3,5.6-5.8,9.1l-1.4,1.2v0.1h7.6v1.9H233.7z"/>
	<path class="st3" d="M247.9,161.4h2.8l2.3,6.3c0.3,0.9,0.9,2.5,1.1,3.5h0.1c0.3-0.9,1-2.9,1.5-4.3l2-5.5h2.8l0.9,12.6h-2.2l-0.3-6
		c-0.1-1.4-0.2-3-0.2-4.5h-0.1c-0.3,1.1-0.7,2.2-1.4,4.1l-2.4,6.3h-1.7l-2.2-6.2c-0.4-1.2-0.9-3-1.2-4.2h-0.1
		c-0.1,1.5-0.1,3.1-0.2,4.5l-0.3,6H247L247.9,161.4z"/>
	<path class="st3" d="M262.8,166.1l1.6-1.5c2.2-2,3.3-3.2,3.3-4.5c0-1-0.6-1.8-2-1.8c-0.9,0-1.7,0.5-2.2,0.8l-0.5-1.2
		c0.7-0.6,1.9-1.1,3.2-1.1c2.4,0,3.5,1.5,3.5,2.9c0,2-1.5,3.4-3.5,5.1l-0.8,0.7v0.1h4.4v1.4h-7V166.1z"/>
</g>
<polygon class="st0" points="270.9,469.5 250,469.5 250,495.7 279.9,495.7 279.9,478.5 "/>
<polygon class="st0" points="262,348.7 220.6,348.7 220.6,384.1 279.9,384.1 279.9,360.9 "/>
<g>
	<path class="st0" d="M356.6,270.1c0,0-4.9,10.6-3.2,15.4c1.6,4.8,3.4,7.3,4.8,7.1c1.4-0.3,2.3-9.4,2-13.2
		C359.9,275.5,359.5,271.4,356.6,270.1z"/>
	<path class="st0" d="M351.2,291.1c-1.2,0.7,0.9,9.6,2.3,13.1c1.5,3.6,3.2,7.3,6.4,7.7c0,0,1.2-11.6-1.9-15.7
		C354.9,292.2,352.5,290.4,351.2,291.1z"/>
	<path class="st0" d="M368.2,217.6h-34.4V252h22.9c-1.3,3.4-2.6,7.8-1.8,10.6c1.4,4.9,3,7.5,4.5,7.3c1.4-0.2,2.7-9.2,2.6-13.1
		c0-1.6-0.1-3.3-0.4-4.8h6.6V217.6z"/>
</g>
<path class="st0" d="M368.1,252h-6.6c-0.4-2.1-1.1-3.9-2.8-4.8c0,0-1.1,2.1-2.1,4.8h-23v34.4h20.1c1.5,4.2,3.1,6.4,4.5,6.2
	c0.8-0.2,1.4-3,1.7-6.2h8.2V252z"/>
<path class="st11" d="M358.2,293c-1.3,0.2-2.9-1.9-4.5-6.2h-20.1v34.4h34.4v-34.4h-8.2C359.6,290,359,292.9,358.2,293z M360,312.3
	c-3.2-0.4-4.9-4.1-6.4-7.7c-1.5-3.5-3.6-12.4-2.3-13.1c1.2-0.7,3.7,1.1,6.8,5.2C361.2,300.8,360,312.3,360,312.3z"/>
<polygon class="st0" points="368.1,218 362.1,218 333.7,218 333.7,225.5 362.1,225.5 362.1,313.7 333.7,313.7 333.7,321.1
	362.1,321.1 362.1,321.1 368.1,321.1 368.1,218 "/>
<path class="st0" d="M352.3,226.9c0,0-1.1,11.4,2.1,15.3c3.2,3.9,5.8,5.6,7,4.9c1.2-0.7-1-9.4-2.6-12.8S355.5,227.1,352.3,226.9
	L352.3,226.9z"/>
<rect x="189" y="239.3" transform="matrix(-1 -1.224647e-16 1.224647e-16 -1 377.9197 547.7922)" class="st0" width="0" height="69.2"/>
<rect x="457.7" y="480.8" class="st0" width="113.4" height="36.9"/>
<path class="st0" d="M560.4,514.9h-93.8c-3.1,0-5.7-1.8-5.7-4.1v-23.1c0-2.3,2.6-4.1,5.7-4.1h93.8c3.2,0,5.7,1.8,5.7,4.1v23.1
	C566.1,513,563.5,514.9,560.4,514.9L560.4,514.9z"/>
<path class="st0" d="M542.6,514.9c0,0,13.2-4.1,13.2-15.7c0-11.6-12.7-15.6-12.7-15.6"/>
<path class="st0" d="M471.6,501.7c-1.3,0-2.4-1.1-2.4-2.4c0-1.3,1.1-2.4,2.4-2.4s2.4,1.1,2.4,2.4C474,500.6,472.9,501.7,471.6,501.7
	L471.6,501.7z"/>
</svg>
