<?xml version="1.0" encoding="utf-8"?>
<!-- Generator: Adobe Illustrator 21.1.0, SVG Export Plug-In . SVG Version: 6.00 Build 0)  -->
<svg version="1.1" id="Layer_1" xmlns="http://www.w3.org/2000/svg" xmlns:xlink="http://www.w3.org/1999/xlink" x="0px" y="0px"
	 viewBox="0 0 720 720" style="enable-background:new 0 0 720 720;" xml:space="preserve">
<style type="text/css">
	.st0{fill:none;stroke:#818282;stroke-width:1.4173;stroke-miterlimit:10;}
	.st1{fill-rule:evenodd;clip-rule:evenodd;fill:#989999;}
	.st2{fill:none;stroke:#989999;stroke-width:2.8346;stroke-miterlimit:10;}
	.st3{fill:#4E4E4E;}
	.st4{fill-rule:evenodd;clip-rule:evenodd;fill:#818282;}
	.st5{fill:#818282;}
	.st6{fill:#AFDBF1;}
	.st7{fill:#989999;}
	.st8{fill:none;stroke:#818282;stroke-width:1.4173;stroke-linejoin:bevel;stroke-miterlimit:10;}
	.st9{fill:none;}
	.st10{fill-rule:evenodd;clip-rule:evenodd;fill:#AFDBF1;}
	.st11{fill:#FFFFFF;stroke:#818282;stroke-width:1.4173;stroke-miterlimit:10;}
</style>
<path class="st1" d="M713.3,581.7h-19.4H472.6l1.2-19.4h109.5v-17.9h9.7v17.9h100.9V460H593v35.7h-9.7V460h-11.5v-9.7h122.1V103
	h-10.6V83.6h10.6h5.4h14v478.7V581.7z M281.5,470.3V460H177.7h-19.4H99.4v30.1H79.9V460H60.6v-29.5h19.4v10.1h19.4h58.9v-72.4h19.4
	v72.4v9.7h113.4v9.7v10.3H281.5z M350.1,460h-10.3v-9.7h10.3V175.4h-40.5V156h66.6v19.4h-16.4v274.9h76.7v9.7h-76.7H350.1z
	 M525.3,460h-10.3v16.2h-19.4V460h-10.3v-9.7h10.3V175.4h-37.4V156h37.4v-53V83.6h19.4h7.8V103h-7.8v53h67.9v19.4h-67.9v274.9h10.3
	V460z M224.9,156v19.4h-47.2V255h-19.4v-79.6V156v-12.4h19.4V156H224.9z M416.7,616.7v19.4h-19.4H99.4H79.9v-19.4v-43.3h19.4v43.3
	h182.1V572v-9.7v-45.8h9.7v45.8h10l-0.5,9.7h-9.5v44.7h106.1v-35V572h-49.4l1.4-9.7h47.9h19.4h9.8v19.4h-9.8V616.7z"/>
<path class="st1" d="M75.7,163v-4.3h82.6v4.3H79.9v267.5h-4.3V163z M64.8,430.5h-4.3V143.6h4.3h93.5v4.3H64.8V430.5z"/>
<path class="st1" d="M693.9,83.6v4.3H522.7v-4.3H693.9z M693.9,98.8v4.3H522.7v-4.3H693.9z"/>
<polygon class="st1" points="645.5,156 645.5,160.2 647.9,171.1 648.7,175.4 641.3,175.4 582.8,175.4 582.8,171.1 641.3,171.1 
	641.3,160.2 582.8,160.2 582.8,156 641.3,156 "/>
<path class="st1" d="M458.1,156v4.3h-81.9V156H458.1z M458.1,171.1v4.3h-81.9v-4.3H458.1z"/>
<path class="st1" d="M309.6,156v4.3h-84.7V156H309.6z M309.6,171.1v4.3h-84.7v-4.3H309.6z"/>
<path class="st1" d="M79.9,490.2h4.3v83.3h-4.3V490.2z M95.1,490.2h4.3v83.3h-4.3V490.2z"/>
<path class="st2" d="M572.5,460c0-26.1-21.1-47.2-47.2-47.2V460"/>
<path class="st2" d="M436.6,460c0-26.9,21.8-48.7,48.6-48.7V460"/>
<path class="st2" d="M291.2,460c0-26.9,21.8-48.7,48.7-48.7V460"/>
<path class="st2" d="M291.2,470.3c-25.5,0-46.1,20.6-46.1,46.1h46.1"/>
<path class="st2" d="M158.3,319.9c26.7,0,48.4,21.7,48.4,48.4h-48.4"/>
<polygon class="st1" points="158.3,319.9 162.5,319.9 172.3,321 177.7,323 177.7,315.6 177.7,255 173.5,255 173.5,315.6 
	162.5,315.6 162.5,255 158.3,255 158.3,315.6 "/>
<path class="st2" d="M645.5,156c0,26.7,21.7,48.4,48.4,48.4V156"/>
<path class="st3" d="M205.6,387.6v6h-1.3v-6l-0.4-0.3l-5.3,6.3h-1.7l6.2-7.2l-5.7-5.8h1.8l5.2,5.5v-5.5h1.3v5.5l5.2-5.5h1.7
	l-5.7,5.8l6.2,7.2h-1.7l-5.3-6.3L205.6,387.6z M216,384.1v7.1l7.1-7.1h0.1v9.6h-1.2v-7l-7,7h-0.2v-9.6H216z M233.9,393.6h-1.3
	l-3.2-7l-3.2,7h-1.3l4.4-9.6h0.2L233.9,393.6z M245.3,384.1v9.6h-1.2V392c-0.5,0.6-1.1,1.1-1.7,1.4c-0.7,0.3-1.3,0.5-2.1,0.5
	c-1.4,0-2.5-0.5-3.5-1.4c-1-1-1.4-2.2-1.4-3.6s0.5-2.6,1.4-3.5c1-1,2.1-1.4,3.5-1.4c0.8,0,1.5,0.2,2.1,0.5c0.7,0.3,1.2,0.8,1.7,1.5
	v-1.8H245.3z M240.4,385c-0.7,0-1.3,0.2-1.9,0.5c-0.6,0.3-1,0.8-1.4,1.4c-0.3,0.6-0.5,1.2-0.5,1.9s0.2,1.3,0.5,1.9
	c0.3,0.6,0.8,1.1,1.4,1.4c0.6,0.3,1.2,0.5,1.9,0.5c0.7,0,1.3-0.2,1.9-0.5c0.6-0.3,1-0.8,1.4-1.4c0.3-0.6,0.5-1.2,0.5-2
	c0-1.1-0.4-2-1.1-2.7C242.4,385.4,241.5,385,240.4,385L240.4,385z M252.1,389.4h-0.9l-2.7,4.3h-1.3l2.9-4.4
	c-0.7-0.1-1.3-0.3-1.7-0.8c-0.5-0.5-0.7-1-0.7-1.7c0-0.9,0.3-1.5,0.8-2c0.5-0.5,1.2-0.7,2-0.7h2.9v9.6h-1.2V389.4z M252.1,385.1
	h-0.8c-0.8,0-1.3,0.1-1.6,0.2c-0.3,0.1-0.5,0.3-0.7,0.5c-0.1,0.2-0.2,0.6-0.2,1s0.1,0.7,0.3,1c0.2,0.3,0.4,0.4,0.7,0.5
	c0.3,0.1,0.8,0.1,1.5,0.1h0.8V385.1z M261.1,384.1h1.2v4l4.5-4h1.7l-4.8,4.4l5.2,5.2h-1.8l-4.4-4.4l-0.4,0.3v4.1h-1.2V384.1z
	 M274.7,383.8c1.5,0,2.7,0.5,3.7,1.6c0.9,1,1.3,2.1,1.3,3.4c0,1.3-0.5,2.5-1.4,3.5c-0.9,1-2.1,1.5-3.6,1.5c-1.5,0-2.7-0.5-3.6-1.5
	c-0.9-1-1.4-2.2-1.4-3.5c0-1.3,0.4-2.5,1.3-3.4C272,384.4,273.2,383.8,274.7,383.8L274.7,383.8z M274.7,385c-1,0-1.9,0.4-2.6,1.1
	c-0.7,0.8-1.1,1.7-1.1,2.7c0,0.7,0.2,1.3,0.5,1.9c0.3,0.6,0.8,1.1,1.4,1.4s1.2,0.5,1.9,0.5c0.7,0,1.3-0.2,1.9-0.5s1-0.8,1.4-1.4
	s0.5-1.2,0.5-1.9c0-1-0.4-2-1.1-2.7S275.7,385,274.7,385L274.7,385z M292.3,384.1h0.4l3.2,9.6h-1.3l-2.4-7l-3.7,7h-0.2l-3.7-7.1
	l-2.4,7.1H281l3.3-9.6h0.3l3.9,7.5L292.3,384.1z M304.5,389h-5.6v4.6h-1.2v-9.6h1.2v3.8h5.6v-3.8h1.2v9.6h-1.2V389z M318,384.1v9.6
	h-1.2V392c-0.5,0.6-1.1,1.1-1.7,1.4c-0.7,0.3-1.4,0.5-2.1,0.5c-1.3,0-2.5-0.5-3.5-1.4c-0.9-1-1.4-2.2-1.4-3.6s0.5-2.6,1.4-3.5
	c1-1,2.1-1.4,3.5-1.4c0.8,0,1.5,0.2,2.1,0.5c0.6,0.3,1.2,0.8,1.7,1.5v-1.8H318z M313.1,385c-0.7,0-1.3,0.2-1.9,0.5
	c-0.6,0.3-1,0.8-1.4,1.4c-0.3,0.6-0.5,1.2-0.5,1.9s0.2,1.3,0.5,1.9c0.3,0.6,0.8,1.1,1.4,1.4c0.6,0.3,1.2,0.5,1.9,0.5
	c0.7,0,1.3-0.2,1.9-0.5c0.6-0.3,1.1-0.8,1.4-1.4c0.3-0.6,0.5-1.2,0.5-2c0-1.1-0.4-2-1.1-2.7C315,385.4,314.2,385,313.1,385
	L313.1,385z M319.7,384.1h6.3v1h-2.6v8.5h-1.2v-8.5h-2.5V384.1z M337.2,384.1v9.6H336V392c-0.5,0.6-1.1,1.1-1.8,1.4
	c-0.6,0.3-1.3,0.5-2.1,0.5c-1.3,0-2.5-0.5-3.5-1.4c-1-1-1.4-2.2-1.4-3.6s0.5-2.6,1.4-3.5c1-1,2.1-1.4,3.5-1.4c0.8,0,1.5,0.2,2.1,0.5
	c0.6,0.3,1.2,0.8,1.7,1.5v-1.8H337.2z M332.3,385c-0.7,0-1.3,0.2-1.9,0.5c-0.6,0.3-1,0.8-1.4,1.4c-0.3,0.6-0.5,1.2-0.5,1.9
	s0.2,1.3,0.5,1.9c0.3,0.6,0.8,1.1,1.4,1.4c0.6,0.3,1.2,0.5,1.9,0.5c0.7,0,1.3-0.2,1.9-0.5c0.6-0.3,1.1-0.8,1.4-1.4
	c0.3-0.6,0.5-1.2,0.5-2c0-1.1-0.4-2-1.1-2.7C334.2,385.4,333.4,385,332.3,385L332.3,385z"/>
<path class="st3" d="M402,383.3l-1,0.8c-0.6-0.7-1.2-1.3-2-1.7c-0.8-0.4-1.7-0.6-2.6-0.6c-1,0-2,0.3-2.9,0.8c-0.9,0.5-1.6,1.2-2,2
	c-0.5,0.9-0.7,1.8-0.7,2.8c0,1.6,0.5,2.9,1.6,4c1.1,1,2.4,1.6,4.1,1.6c1.8,0,3.3-0.7,4.5-2.1l1,0.8c-0.7,0.8-1.4,1.4-2.4,1.9
	c-1,0.5-2,0.7-3.2,0.7c-2.3,0-4.1-0.8-5.4-2.3c-1.1-1.3-1.6-2.8-1.6-4.6c0-1.9,0.7-3.5,2-4.8c1.3-1.3,3-1.9,5-1.9
	c1.2,0,2.3,0.2,3.3,0.7C400.6,381.8,401.4,382.4,402,383.3L402,383.3z M404.4,384.3h8v9.6h-1.2v-8.4h-5.6v8.4h-1.2V384.3z
	 M424.7,384.3v9.6h-1.2v-1.6c-0.5,0.7-1.1,1.1-1.7,1.4c-0.7,0.3-1.3,0.5-2.1,0.5c-1.4,0-2.5-0.5-3.5-1.5c-1-1-1.4-2.2-1.4-3.6
	c0-1.4,0.5-2.6,1.4-3.5c1-1,2.1-1.5,3.5-1.5c0.8,0,1.5,0.2,2.1,0.5c0.7,0.3,1.2,0.9,1.7,1.5v-1.8H424.7z M419.8,385.2
	c-0.7,0-1.3,0.2-1.9,0.5c-0.6,0.3-1,0.8-1.4,1.4c-0.3,0.6-0.5,1.2-0.5,1.9s0.2,1.3,0.5,1.9c0.3,0.6,0.8,1.1,1.4,1.4
	c0.6,0.3,1.2,0.5,1.9,0.5c0.7,0,1.3-0.2,1.9-0.5c0.6-0.3,1-0.8,1.4-1.4c0.3-0.6,0.5-1.2,0.5-2c0-1.1-0.4-2-1.1-2.7
	C421.7,385.6,420.8,385.2,419.8,385.2L419.8,385.2z M435.6,393.8h-1.3l-3.2-6.9l-3.2,6.9h-1.3l4.4-9.6h0.2L435.6,393.8z
	 M438.7,388.1h1.2c0.9,0,1.7,0.1,2.2,0.2c0.5,0.1,1,0.5,1.4,1c0.4,0.5,0.6,1.1,0.6,1.7c0,0.8-0.3,1.4-0.8,2
	c-0.6,0.6-1.4,0.8-2.5,0.8h-3.2v-9.6h1.2V388.1z M438.7,389.2v3.6h1.4c1.7,0,2.5-0.6,2.5-1.8c0-0.3-0.1-0.7-0.3-1
	c-0.2-0.3-0.4-0.5-0.8-0.7c-0.3-0.1-1-0.2-1.8-0.2H438.7z M452.7,389.2h-5.6v4.6h-1.2v-9.6h1.2v3.8h5.6v-3.8h1.2v9.6h-1.2V389.2z
	 M460.8,389.6h-0.9l-2.7,4.3h-1.3l2.9-4.4c-0.7-0.1-1.3-0.4-1.7-0.8c-0.5-0.5-0.7-1-0.7-1.7c0-0.9,0.3-1.5,0.8-2
	c0.5-0.5,1.2-0.7,2-0.7h2.9v9.6h-1.2V389.6z M460.8,385.4h-0.8c-0.8,0-1.3,0-1.6,0.1c-0.3,0.1-0.5,0.3-0.7,0.5
	c-0.1,0.3-0.2,0.6-0.2,1c0,0.4,0.1,0.7,0.3,1c0.2,0.3,0.4,0.4,0.7,0.5c0.3,0.1,0.7,0.1,1.5,0.1h0.8V385.4z"/>
<path class="st3" d="M577.5,383.3l-1,0.8c-0.5-0.7-1.2-1.3-2-1.7c-0.8-0.4-1.6-0.6-2.6-0.6c-1,0-2,0.3-2.9,0.8c-0.9,0.5-1.5,1.2-2,2
	c-0.5,0.9-0.7,1.8-0.7,2.8c0,1.6,0.5,2.9,1.6,4c1.1,1,2.4,1.6,4.1,1.6c1.8,0,3.3-0.7,4.5-2.1l1,0.8c-0.6,0.8-1.4,1.4-2.4,1.9
	c-1,0.5-2,0.7-3.2,0.7c-2.2,0-4-0.8-5.3-2.3c-1.1-1.3-1.6-2.8-1.6-4.6c0-1.9,0.7-3.5,2-4.8c1.3-1.3,3-1.9,5-1.9
	c1.2,0,2.3,0.2,3.3,0.7C576.1,381.8,576.9,382.4,577.5,383.3L577.5,383.3z M579.9,384.3h8v9.6h-1.2v-8.4h-5.6v8.4h-1.2V384.3z
	 M600.2,384.3v9.6H599v-1.6c-0.5,0.7-1.1,1.1-1.7,1.4c-0.6,0.3-1.3,0.5-2.1,0.5c-1.3,0-2.5-0.5-3.5-1.5c-1-1-1.4-2.2-1.4-3.6
	c0-1.4,0.5-2.6,1.5-3.5c1-1,2.1-1.5,3.5-1.5c0.8,0,1.5,0.2,2.1,0.5c0.7,0.3,1.2,0.9,1.7,1.5v-1.8H600.2z M595.3,385.2
	c-0.7,0-1.3,0.2-1.9,0.5c-0.6,0.3-1,0.8-1.4,1.4c-0.3,0.6-0.5,1.2-0.5,1.9s0.2,1.3,0.5,1.9c0.4,0.6,0.8,1.1,1.4,1.4
	c0.6,0.3,1.2,0.5,1.9,0.5c0.7,0,1.3-0.2,1.9-0.5s1-0.8,1.4-1.4c0.3-0.6,0.5-1.2,0.5-2c0-1.1-0.4-2-1.1-2.7
	C597.2,385.6,596.3,385.2,595.3,385.2L595.3,385.2z M611.1,393.8h-1.3l-3.2-6.9l-3.2,6.9h-1.3l4.4-9.6h0.2L611.1,393.8z
	 M614.2,388.1h1.2c0.9,0,1.6,0.1,2.2,0.2s1,0.5,1.4,1c0.4,0.5,0.6,1.1,0.6,1.7c0,0.8-0.3,1.4-0.8,2c-0.5,0.6-1.4,0.8-2.5,0.8h-3.2
	v-9.6h1.2V388.1z M614.2,389.2v3.6h1.4c1.7,0,2.5-0.6,2.5-1.8c0-0.3-0.1-0.7-0.3-1c-0.2-0.3-0.5-0.5-0.8-0.7
	c-0.3-0.1-0.9-0.2-1.8-0.2H614.2z M628.2,389.2h-5.6v4.6h-1.2v-9.6h1.2v3.8h5.6v-3.8h1.2v9.6h-1.2V389.2z M636.2,389.6h-0.9
	l-2.7,4.3h-1.3l2.9-4.4c-0.7-0.1-1.3-0.4-1.7-0.8c-0.5-0.5-0.7-1-0.7-1.7c0-0.9,0.3-1.5,0.8-2c0.5-0.5,1.2-0.7,2-0.7h2.9v9.6h-1.2
	V389.6z M636.2,385.4h-0.8c-0.8,0-1.3,0-1.6,0.1c-0.3,0.1-0.5,0.3-0.6,0.5c-0.2,0.3-0.3,0.6-0.3,1c0,0.4,0.1,0.7,0.3,1
	c0.2,0.3,0.4,0.4,0.7,0.5s0.8,0.1,1.5,0.1h0.8V385.4z"/>
<path class="st3" d="M246.8,333.1h3.4v17.2h-1.7v-15.6h-2.7L246.8,333.1z M264.4,332.6l1.4,0.9l-4.7,7c0.6-0.2,1.2-0.3,1.8-0.3
	c1.4,0,2.6,0.5,3.5,1.5c0.9,1,1.4,2.2,1.4,3.7c0,1-0.2,1.9-0.7,2.7c-0.5,0.8-1.1,1.4-2,1.9c-0.9,0.5-1.8,0.7-2.7,0.7
	s-1.8-0.2-2.6-0.7c-0.8-0.5-1.4-1.1-1.9-1.9c-0.5-0.9-0.7-1.7-0.7-2.7c0-0.7,0.1-1.4,0.4-2.2c0.3-0.8,0.8-1.7,1.5-2.8L264.4,332.6z
	 M262.5,341.8c-1,0-1.8,0.3-2.6,1c-0.7,0.7-1.1,1.6-1.1,2.6c0,1,0.4,1.8,1.1,2.6c0.7,0.7,1.6,1.1,2.6,1.1s1.9-0.4,2.6-1.1
	c0.7-0.7,1-1.6,1-2.6c0-1-0.4-1.9-1.1-2.6C264.4,342.1,263.5,341.8,262.5,341.8L262.5,341.8z M272.4,347.1l1.6,0.7l-2.4,4.5
	l-1.2-0.5L272.4,347.1z M280,333.1h3.4v17.2h-1.7v-15.6H279L280,333.1z M297.7,332.6l1.4,0.9l-4.7,7c0.6-0.2,1.2-0.3,1.8-0.3
	c1.4,0,2.6,0.5,3.5,1.5c1,1,1.4,2.2,1.4,3.7c0,1-0.2,1.9-0.7,2.7c-0.5,0.8-1.1,1.4-2,1.9c-0.9,0.5-1.8,0.7-2.7,0.7
	c-0.9,0-1.8-0.2-2.6-0.7c-0.8-0.5-1.4-1.1-1.9-1.9c-0.5-0.9-0.7-1.7-0.7-2.7c0-0.7,0.1-1.4,0.4-2.2c0.3-0.8,0.8-1.7,1.5-2.8
	L297.7,332.6z M295.8,341.8c-1,0-1.9,0.3-2.6,1c-0.7,0.7-1,1.6-1,2.6c0,1,0.4,1.8,1,2.6c0.7,0.7,1.6,1.1,2.6,1.1s1.8-0.4,2.6-1.1
	c0.7-0.7,1.1-1.6,1.1-2.6c0-1-0.4-1.9-1.1-2.6C297.6,342.1,296.8,341.8,295.8,341.8L295.8,341.8z"/>
<path class="st3" d="M374.1,188.2h3.4v17.2h-1.7v-15.5h-2.7L374.1,188.2z M386.2,192.2h-1.8c0.3-1.4,0.9-2.5,1.8-3.3
	c0.9-0.8,2-1.2,3.2-1.2c0.9,0,1.7,0.2,2.5,0.6c0.8,0.4,1.4,1,1.8,1.6c0.4,0.7,0.6,1.4,0.6,2.2c0,1.5-0.7,2.7-2.2,3.5
	c0.8,0.3,1.5,0.9,2,1.5c0.7,0.9,1.1,1.9,1.1,3.1c0,1-0.3,1.9-0.8,2.8c-0.5,0.9-1.2,1.6-2.1,2.1c-0.9,0.5-1.9,0.7-3,0.7
	c-1.5,0-2.7-0.4-3.7-1.3s-1.6-2.1-1.9-3.8h1.7c0.3,1.1,0.7,1.9,1.3,2.4c0.7,0.6,1.6,0.9,2.7,0.9c1.2,0,2.2-0.4,3-1.1
	c0.8-0.8,1.1-1.6,1.1-2.6c0-0.7-0.2-1.3-0.6-1.9c-0.4-0.6-0.9-1-1.5-1.3c-0.6-0.3-1.6-0.5-2.9-0.6v-1.6c0.8,0,1.5-0.1,2.2-0.4
	c0.7-0.3,1.1-0.7,1.4-1.1c0.3-0.4,0.5-0.9,0.5-1.4c0-0.8-0.3-1.4-0.9-2s-1.3-0.8-2.3-0.8c-0.7,0-1.4,0.2-1.9,0.6
	C387,190.5,386.5,191.2,386.2,192.2L386.2,192.2z M399.7,202.2l1.6,0.8l-2.4,4.4l-1.1-0.5L399.7,202.2z M405.7,193.6h-1.6
	c0-1.7,0.6-3.1,1.7-4.2c1.1-1.1,2.4-1.6,4.1-1.6c1.6,0,2.9,0.5,3.8,1.5c1,1,1.5,2.2,1.5,3.6c0,1-0.2,1.9-0.7,2.7
	c-0.5,0.9-1.4,2-2.7,3.5l-4.3,4.6h8v1.6h-11.7l6.6-7.1c1.3-1.4,2.2-2.5,2.6-3.2c0.4-0.7,0.6-1.4,0.6-2.2c0-1-0.4-1.8-1.1-2.5
	c-0.7-0.7-1.6-1-2.7-1c-1.1,0-2,0.4-2.7,1.1C406.2,191.2,405.8,192.3,405.7,193.6L405.7,193.6z M428,188.2v1.6h-6.1l-0.9,4.7
	c0.8-0.2,1.4-0.3,2-0.3c1.6,0,2.9,0.5,3.9,1.6c1,1,1.5,2.4,1.5,4c0,1.1-0.3,2.2-0.8,3.1c-0.5,0.9-1.2,1.7-2.1,2.2
	c-0.9,0.5-1.9,0.7-3.1,0.7c-1.4,0-2.6-0.4-3.5-1.3c-1-0.9-1.6-2-1.7-3.3h1.8c0.1,0.7,0.4,1.2,0.7,1.6c0.3,0.4,0.7,0.7,1.3,1
	c0.5,0.3,1.1,0.4,1.6,0.4c1.1,0,2.1-0.4,2.9-1.3c0.8-0.9,1.2-1.9,1.2-3.2c0-1.2-0.4-2.1-1.1-2.8c-0.7-0.7-1.7-1.1-2.9-1.1
	c-1,0-2.3,0.3-3.7,0.9l1.6-8.6H428z"/>
<path class="st3" d="M535.6,188.2h3.4v17.2h-1.7v-15.5h-2.7L535.6,188.2z M553.3,187.8l1.4,0.9l-4.7,7c0.6-0.2,1.2-0.3,1.8-0.3
	c1.4,0,2.5,0.5,3.5,1.5c0.9,1,1.4,2.2,1.4,3.7c0,1-0.2,1.9-0.7,2.7c-0.5,0.8-1.1,1.4-2,1.9c-0.9,0.5-1.8,0.7-2.7,0.7
	c-1,0-1.8-0.2-2.6-0.7c-0.8-0.5-1.4-1.1-1.9-1.9c-0.5-0.8-0.7-1.7-0.7-2.7c0-0.7,0.1-1.4,0.4-2.2c0.3-0.8,0.8-1.7,1.5-2.8
	L553.3,187.8z M551.4,196.9c-1,0-1.8,0.4-2.6,1.1c-0.7,0.7-1.1,1.6-1.1,2.6c0,1,0.4,1.9,1.1,2.6c0.7,0.7,1.6,1,2.6,1
	c1,0,1.9-0.3,2.6-1c0.7-0.7,1-1.6,1-2.6c0-1-0.3-1.8-1-2.6C553.2,197.3,552.4,196.9,551.4,196.9L551.4,196.9z M561.2,202.2l1.6,0.8
	l-2.4,4.4l-1.2-0.5L561.2,202.2z M574.6,187.8h0.4v12h2.1v1.6H575v4h-1.7v-4H565L574.6,187.8z M573.3,199.8v-7.2l-5.1,7.2H573.3z
	 M586.5,187.8l1.4,0.9l-4.7,7c0.6-0.2,1.2-0.3,1.8-0.3c1.4,0,2.6,0.5,3.5,1.5c1,1,1.4,2.2,1.4,3.7c0,1-0.2,1.9-0.7,2.7
	c-0.5,0.8-1.1,1.4-2,1.9c-0.9,0.5-1.8,0.7-2.7,0.7c-0.9,0-1.8-0.2-2.6-0.7c-0.8-0.5-1.4-1.1-1.9-1.9c-0.5-0.8-0.7-1.7-0.7-2.7
	c0-0.7,0.1-1.4,0.4-2.2c0.3-0.8,0.8-1.7,1.5-2.8L586.5,187.8z M584.6,196.9c-1,0-1.9,0.4-2.6,1.1c-0.7,0.7-1.1,1.6-1.1,2.6
	c0,1,0.4,1.9,1.1,2.6c0.7,0.7,1.6,1,2.6,1s1.8-0.3,2.6-1c0.7-0.7,1.1-1.6,1.1-2.6c0-1-0.4-1.8-1.1-2.6
	C586.5,197.3,585.6,196.9,584.6,196.9L584.6,196.9z"/>
<path class="st3" d="M96.5,404.8h10.9l-9.2,17.7l-1.4-0.7l8-15.3h-8.2V404.8z M111.5,418.8l1.6,0.8l-2.4,4.4l-1.2-0.5L111.5,418.8z
	 M123.5,404.3l1.4,0.9l-4.7,7c0.6-0.2,1.2-0.3,1.8-0.3c1.4,0,2.6,0.5,3.5,1.5c1,1,1.4,2.2,1.4,3.7c0,1-0.2,1.9-0.7,2.7
	c-0.5,0.8-1.1,1.4-2,1.9c-0.9,0.5-1.8,0.7-2.7,0.7c-1,0-1.8-0.2-2.6-0.7c-0.8-0.5-1.4-1.1-1.9-1.9c-0.5-0.8-0.7-1.7-0.7-2.7
	c0-0.7,0.1-1.4,0.4-2.2c0.3-0.8,0.8-1.7,1.5-2.8L123.5,404.3z M121.6,413.5c-1,0-1.9,0.4-2.6,1.1c-0.7,0.7-1.1,1.6-1.1,2.6
	c0,1,0.4,1.9,1.1,2.6c0.7,0.7,1.6,1,2.6,1s1.9-0.3,2.6-1c0.7-0.7,1.1-1.6,1.1-2.6c0-1-0.4-1.8-1.1-2.6
	C123.4,413.9,122.6,413.5,121.6,413.5L121.6,413.5z M130.8,410.2h-1.7c0.1-1.7,0.6-3.1,1.7-4.2c1.1-1.1,2.4-1.6,4-1.6
	c1.6,0,2.9,0.5,3.9,1.5c1,1,1.5,2.2,1.5,3.6c0,1-0.3,1.9-0.7,2.7c-0.5,0.9-1.4,2-2.7,3.5l-4.3,4.6h8v1.6h-11.7l6.5-7.1
	c1.3-1.4,2.2-2.5,2.6-3.2c0.4-0.7,0.6-1.4,0.6-2.2c0-1-0.3-1.8-1.1-2.5c-0.7-0.7-1.6-1-2.6-1c-1.1,0-2,0.4-2.7,1.1
	C131.3,407.8,130.9,408.8,130.8,410.2L130.8,410.2z"/>
<path class="st3" d="M115.5,493.5l-1.4-0.9l4.7-7c-0.6,0.2-1.2,0.3-1.8,0.3c-1.4,0-2.5-0.5-3.5-1.5c-1-1-1.4-2.2-1.4-3.7
	c0-1,0.2-1.9,0.7-2.7c0.5-0.8,1.1-1.4,2-1.9c0.8-0.5,1.8-0.7,2.7-0.7c0.9,0,1.8,0.2,2.6,0.7c0.8,0.5,1.4,1.1,1.9,1.9
	c0.5,0.9,0.7,1.7,0.7,2.7c0,0.7-0.1,1.4-0.4,2.2c-0.3,0.8-0.8,1.7-1.5,2.8L115.5,493.5z M117.4,484.3c1,0,1.9-0.4,2.6-1.1
	c0.7-0.7,1-1.6,1-2.6s-0.3-1.9-1-2.6c-0.7-0.7-1.6-1.1-2.6-1.1s-1.8,0.4-2.6,1.1c-0.7,0.7-1.1,1.6-1.1,2.6s0.4,1.8,1.1,2.6
	C115.5,484,116.4,484.3,117.4,484.3L117.4,484.3z M127.7,489.9l1.6,0.8l-2.4,4.4l-1.2-0.5L127.7,489.9z M134.1,479.8h-1.8
	c0.3-1.4,0.9-2.5,1.8-3.3c0.9-0.8,2-1.1,3.2-1.1c0.9,0,1.7,0.2,2.5,0.6c0.8,0.4,1.4,0.9,1.8,1.6c0.4,0.7,0.6,1.4,0.6,2.2
	c0,1.5-0.7,2.7-2.2,3.5c0.8,0.3,1.5,0.8,2,1.5c0.8,0.9,1.1,2,1.1,3.1c0,1-0.3,1.9-0.8,2.8c-0.5,0.9-1.2,1.6-2.1,2.1
	c-0.9,0.5-1.9,0.7-3,0.7c-1.5,0-2.7-0.4-3.7-1.3s-1.6-2.1-1.9-3.8h1.7c0.3,1.1,0.7,1.9,1.3,2.4c0.7,0.7,1.6,1,2.7,1
	c1.2,0,2.2-0.4,3-1.1c0.8-0.7,1.1-1.6,1.1-2.6c0-0.7-0.2-1.3-0.6-1.9c-0.4-0.6-0.9-1-1.5-1.3c-0.6-0.3-1.6-0.5-2.9-0.5v-1.6
	c0.8,0,1.5-0.1,2.2-0.4c0.7-0.3,1.1-0.6,1.4-1s0.5-0.9,0.5-1.4c0-0.7-0.3-1.4-0.9-1.9c-0.6-0.5-1.3-0.8-2.3-0.8
	c-0.7,0-1.4,0.2-1.9,0.6C134.9,478.1,134.4,478.8,134.1,479.8L134.1,479.8z M144.9,484.4c0-2.3,0.3-4,0.7-5.3s1.2-2.2,2.1-2.8
	c0.9-0.7,1.9-1,3-1s2.1,0.3,3,1c0.9,0.7,1.6,1.6,2.1,2.9c0.5,1.3,0.8,3,0.8,5.2c0,2.2-0.3,3.9-0.8,5.2c-0.5,1.3-1.2,2.3-2.2,2.9
	c-0.9,0.7-1.9,1-3,1s-2.1-0.3-3-0.9c-0.9-0.7-1.6-1.6-2.1-2.8C145.2,488.5,144.9,486.7,144.9,484.4L144.9,484.4z M146.6,484.5
	c0,2,0.2,3.4,0.5,4.4c0.4,1,0.9,1.8,1.6,2.3c0.7,0.5,1.4,0.8,2.2,0.8s1.5-0.3,2.1-0.7c0.7-0.5,1.2-1.3,1.5-2.3
	c0.4-1.2,0.7-2.7,0.7-4.5c0-1.7-0.2-3.1-0.6-4.3c-0.4-1.1-0.9-1.9-1.6-2.4c-0.7-0.5-1.4-0.8-2.1-0.8c-0.8,0-1.5,0.3-2.2,0.8
	c-0.7,0.5-1.2,1.2-1.5,2.2C146.7,481,146.6,482.5,146.6,484.5L146.6,484.5z"/>
<path class="st3" d="M166,558.9h1.3v4.8l5.2-4.8h1.7l-6.2,5.8l6.7,7.1H173l-5.7-6v6H166V558.9z M175.4,562.3h1.3l3.3,7.3l3.2-7.3
	h1.3l-5.7,13h-1.3l1.9-4.3L175.4,562.3z M185,562.3h1.5l2.6,3.5l2.5-3.5h1.5l-3.2,4.5l3.7,5h-1.5l-2.9-4l-2.9,4h-1.5l3.6-5
	L185,562.3z M201.5,567.3h-5.6v4.6h-1.2v-9.6h1.2v3.8h5.6v-3.8h1.2v9.6h-1.2V567.3z M209.5,567.6h-0.9l-2.7,4.3h-1.3l2.9-4.4
	c-0.7-0.1-1.3-0.3-1.8-0.8c-0.4-0.5-0.7-1-0.7-1.7c0-0.9,0.3-1.5,0.8-2c0.5-0.5,1.2-0.7,2-0.7h2.9v9.6h-1.2V567.6z M209.5,563.3
	h-0.8c-0.8,0-1.3,0.1-1.6,0.2c-0.3,0.1-0.5,0.3-0.7,0.5c-0.1,0.2-0.2,0.6-0.2,1s0.1,0.7,0.3,1c0.2,0.3,0.4,0.4,0.7,0.5
	c0.3,0.1,0.7,0.1,1.5,0.1h0.8V563.3z"/>
<path class="st3" d="M309.3,579.2l-0.8,0.6c-0.4-0.5-0.9-1-1.5-1.2s-1.2-0.4-2-0.4c-0.8,0-1.5,0.2-2.2,0.6c-0.7,0.4-1.2,0.9-1.5,1.5
	c-0.3,0.6-0.5,1.3-0.5,2.1c0,1.2,0.4,2.2,1.2,2.9c0.8,0.8,1.8,1.2,3.1,1.2c1.4,0,2.5-0.5,3.4-1.6l0.8,0.6c-0.5,0.6-1.1,1.1-1.8,1.4
	c-0.7,0.3-1.5,0.5-2.4,0.5c-1.7,0-3-0.6-4-1.7c-0.8-1-1.2-2.1-1.2-3.5c0-1.4,0.5-2.6,1.5-3.6c1-1,2.2-1.4,3.7-1.4
	c0.9,0,1.7,0.2,2.4,0.5C308.2,578.1,308.8,578.6,309.3,579.2L309.3,579.2z M315.6,577.2l-4,11.3h-1l4-11.3H315.6z M316.2,580h0.9
	l2.5,5.5l2.4-5.5h1l-4.3,9.8h-1l1.4-3.2L316.2,580z"/>
<path class="st3" d="M300.6,594.8h2.6v12.9h-1.3V596h-2L300.6,594.8z M309.8,605.3l1.2,0.6l-1.8,3.3l-0.9-0.4L309.8,605.3z
	 M313.5,594.8h8.2l-6.9,13.2l-1.1-0.5l6-11.5h-6.2V594.8z M331,594.8v1.2h-4.6l-0.7,3.5c0.6-0.2,1.1-0.3,1.5-0.3
	c1.2,0,2.2,0.4,2.9,1.2s1.1,1.8,1.1,3c0,0.9-0.2,1.6-0.6,2.4c-0.4,0.7-0.9,1.2-1.6,1.6c-0.7,0.4-1.4,0.6-2.3,0.6c-1,0-1.9-0.3-2.7-1
	c-0.7-0.7-1.1-1.5-1.3-2.5h1.3c0.1,0.5,0.3,0.9,0.5,1.2c0.2,0.3,0.5,0.6,0.9,0.8s0.8,0.3,1.2,0.3c0.9,0,1.6-0.3,2.2-1
	c0.6-0.7,0.9-1.4,0.9-2.4c0-0.9-0.3-1.6-0.8-2.1c-0.5-0.5-1.3-0.8-2.2-0.8c-0.8,0-1.7,0.2-2.7,0.7l1.2-6.4H331z"/>
<path class="st3" d="M608.7,508.4l-0.8,0.6c-0.4-0.6-0.9-1-1.5-1.2c-0.6-0.3-1.2-0.4-1.9-0.4c-0.8,0-1.5,0.2-2.2,0.5
	s-1.2,0.9-1.5,1.5c-0.4,0.6-0.5,1.3-0.5,2.1c0,1.2,0.4,2.2,1.2,2.9c0.8,0.8,1.8,1.2,3.1,1.2c1.4,0,2.5-0.5,3.4-1.6l0.8,0.6
	c-0.5,0.6-1.1,1.1-1.8,1.4c-0.7,0.3-1.5,0.5-2.4,0.5c-1.7,0-3-0.5-4-1.7c-0.8-1-1.2-2.1-1.2-3.5c0-1.4,0.5-2.6,1.5-3.6
	c1-1,2.2-1.5,3.7-1.5c0.9,0,1.7,0.2,2.5,0.5C607.6,507.2,608.2,507.7,608.7,508.4L608.7,508.4z M614.9,506.3l-4,11.3h-1l4-11.3
	H614.9z M615.6,509.1h1l2.5,5.5l2.4-5.5h1l-4.3,9.8h-1l1.4-3.2L615.6,509.1z"/>
<path class="st3" d="M599.2,524.3h-1.3c0.3-1,0.7-1.9,1.4-2.5c0.7-0.6,1.5-0.9,2.4-0.9c0.7,0,1.3,0.1,1.9,0.5c0.6,0.3,1,0.7,1.3,1.2
	c0.3,0.5,0.5,1.1,0.5,1.6c0,1.1-0.5,2-1.6,2.6c0.6,0.3,1.1,0.6,1.5,1.1c0.6,0.7,0.9,1.4,0.9,2.3c0,0.7-0.2,1.4-0.6,2.1
	c-0.4,0.7-0.9,1.2-1.6,1.5c-0.7,0.4-1.4,0.6-2.2,0.6c-1.1,0-2-0.3-2.8-1c-0.7-0.7-1.2-1.6-1.4-2.8h1.2c0.2,0.8,0.5,1.4,1,1.8
	c0.5,0.5,1.2,0.7,2,0.7c0.9,0,1.7-0.3,2.2-0.8c0.6-0.6,0.9-1.2,0.9-2c0-0.5-0.1-1-0.4-1.4c-0.3-0.4-0.7-0.8-1.2-1
	c-0.5-0.2-1.2-0.4-2.2-0.4v-1.2c0.6,0,1.1-0.1,1.6-0.3c0.5-0.2,0.9-0.5,1.1-0.8c0.2-0.3,0.3-0.7,0.3-1.1c0-0.5-0.2-1-0.7-1.4
	c-0.5-0.4-1-0.6-1.7-0.6c-0.6,0-1,0.2-1.4,0.5S599.5,523.6,599.2,524.3L599.2,524.3z M609.4,531.9l1.2,0.6l-1.8,3.3l-0.9-0.4
	L609.4,531.9z M620.6,521.3v1.2H616l-0.7,3.5c0.6-0.2,1.1-0.3,1.5-0.3c1.2,0,2.2,0.4,2.9,1.2c0.8,0.8,1.1,1.8,1.1,3
	c0,0.9-0.2,1.6-0.6,2.3c-0.4,0.7-0.9,1.2-1.6,1.6c-0.7,0.4-1.4,0.6-2.3,0.6c-1,0-1.9-0.3-2.7-1c-0.7-0.7-1.1-1.5-1.3-2.5h1.3
	c0.1,0.5,0.3,0.9,0.5,1.2c0.3,0.3,0.6,0.6,1,0.7c0.4,0.2,0.8,0.3,1.2,0.3c0.9,0,1.6-0.3,2.2-1c0.6-0.7,0.9-1.4,0.9-2.4
	c0-0.9-0.3-1.6-0.8-2.1c-0.5-0.5-1.3-0.8-2.2-0.8c-0.8,0-1.7,0.3-2.7,0.7l1.2-6.4H620.6z M628.3,521l1.1,0.7l-3.5,5.3
	c0.5-0.2,0.9-0.3,1.3-0.3c1,0,1.9,0.4,2.6,1.1c0.7,0.7,1.1,1.6,1.1,2.7c0,0.8-0.2,1.4-0.5,2c-0.4,0.6-0.9,1.1-1.5,1.4
	c-0.7,0.3-1.3,0.5-2.1,0.5c-0.7,0-1.4-0.2-2-0.5c-0.6-0.4-1.1-0.9-1.4-1.4c-0.3-0.6-0.5-1.3-0.5-2c0-0.5,0.1-1.1,0.3-1.7
	c0.2-0.6,0.6-1.3,1.2-2.1L628.3,521z M626.9,527.9c-0.8,0-1.4,0.3-1.9,0.8c-0.5,0.5-0.8,1.2-0.8,1.9c0,0.8,0.3,1.4,0.8,1.9
	s1.2,0.8,1.9,0.8c0.8,0,1.4-0.3,1.9-0.8s0.8-1.2,0.8-1.9c0-0.7-0.3-1.4-0.8-1.9C628.3,528.1,627.7,527.9,626.9,527.9L626.9,527.9z"
	/>
<path class="st3" d="M375.1,473h1.5l3.1,5l3.1-5h1.5l-3.9,6.2l4.1,6.7h-1.5l-3.3-5.5l-3.4,5.5h-1.5l4.1-6.7L375.1,473z M391.1,476.2
	c1.5,0,2.7,0.5,3.7,1.6c0.9,1,1.3,2.1,1.3,3.4s-0.5,2.5-1.4,3.5s-2.1,1.5-3.6,1.5c-1.5,0-2.7-0.5-3.6-1.5c-0.9-1-1.4-2.2-1.4-3.5
	s0.4-2.5,1.3-3.4C388.4,476.7,389.6,476.2,391.1,476.2L391.1,476.2z M391.1,477.4c-1,0-1.9,0.4-2.6,1.1c-0.7,0.7-1.1,1.6-1.1,2.7
	c0,0.7,0.2,1.3,0.5,1.9c0.3,0.6,0.8,1,1.4,1.4c0.6,0.3,1.2,0.5,1.9,0.5c0.7,0,1.3-0.2,1.9-0.5c0.6-0.3,1-0.8,1.4-1.4
	s0.5-1.2,0.5-1.9c0-1.1-0.4-2-1.1-2.7C393,477.7,392.1,477.4,391.1,477.4L391.1,477.4z M406.4,486h-1.3l-3.2-7l-3.2,7h-1.3l4.4-9.6
	h0.2L406.4,486z M416.4,486h-1.3l-3.2-7l-3.2,7h-1.3l4.4-9.6h0.2L416.4,486z"/>
<path class="st3" d="M368.8,495.4h3.4v17.2h-1.7v-15.5h-2.7L368.8,495.4z M378.4,504c0-2.3,0.3-4,0.7-5.2c0.5-1.2,1.2-2.2,2.1-2.8
	c0.9-0.7,1.9-1,3-1c1.1,0,2.1,0.3,3,1c0.9,0.7,1.6,1.6,2.1,2.9c0.5,1.3,0.8,3,0.8,5.2c0,2.2-0.3,3.9-0.8,5.2
	c-0.5,1.3-1.2,2.2-2.2,2.9c-0.9,0.7-1.9,1-3,1c-1.1,0-2.1-0.3-3-0.9c-0.9-0.6-1.6-1.6-2.1-2.8C378.7,508.1,378.4,506.3,378.4,504
	L378.4,504z M380.1,504.1c0,1.9,0.2,3.4,0.5,4.4c0.4,1,0.9,1.8,1.6,2.3c0.7,0.5,1.4,0.8,2.2,0.8c0.8,0,1.5-0.2,2.1-0.7
	c0.7-0.5,1.2-1.3,1.5-2.3c0.4-1.2,0.7-2.7,0.7-4.4c0-1.8-0.2-3.2-0.6-4.3c-0.4-1.1-0.9-1.9-1.6-2.4c-0.7-0.5-1.4-0.8-2.1-0.8
	c-0.8,0-1.5,0.3-2.2,0.8c-0.7,0.5-1.2,1.2-1.5,2.2C380.2,500.7,380.1,502.1,380.1,504.1L380.1,504.1z M394.4,509.5l1.6,0.8l-2.4,4.4
	l-1.2-0.5L394.4,509.5z M409.4,495.4v1.6h-6.1l-0.9,4.7c0.8-0.2,1.4-0.3,2-0.3c1.6,0,2.9,0.5,3.9,1.6c1,1,1.5,2.4,1.5,4
	c0,1.1-0.3,2.2-0.8,3.1c-0.5,0.9-1.2,1.7-2.1,2.2c-0.9,0.5-1.9,0.7-3.1,0.7c-1.4,0-2.6-0.4-3.5-1.3c-1-0.9-1.6-2-1.7-3.3h1.8
	c0.1,0.7,0.4,1.2,0.7,1.6c0.3,0.4,0.7,0.7,1.3,1c0.5,0.3,1.1,0.4,1.6,0.4c1.1,0,2.1-0.4,2.9-1.3c0.8-0.9,1.2-1.9,1.2-3.2
	c0-1.1-0.4-2.1-1.1-2.8c-0.7-0.7-1.7-1.1-2.9-1.1c-1,0-2.2,0.3-3.7,0.9l1.6-8.6H409.4z M411.7,504c0-2.3,0.3-4,0.7-5.2
	c0.5-1.2,1.2-2.2,2.1-2.8c0.9-0.7,1.9-1,3-1c1.1,0,2.1,0.3,3,1c0.9,0.7,1.6,1.6,2.2,2.9c0.5,1.3,0.8,3,0.8,5.2
	c0,2.2-0.3,3.9-0.8,5.2c-0.5,1.3-1.2,2.2-2.1,2.9c-0.9,0.7-1.9,1-3.1,1c-1.1,0-2.1-0.3-3-0.9c-0.9-0.6-1.6-1.6-2.1-2.8
	C411.9,508.1,411.7,506.3,411.7,504L411.7,504z M413.3,504.1c0,1.9,0.2,3.4,0.5,4.4c0.3,1,0.9,1.8,1.6,2.3c0.7,0.5,1.4,0.8,2.2,0.8
	c0.8,0,1.5-0.2,2.1-0.7c0.7-0.5,1.2-1.3,1.5-2.3c0.4-1.2,0.6-2.7,0.6-4.4c0-1.8-0.2-3.2-0.6-4.3c-0.4-1.1-0.9-1.9-1.6-2.4
	c-0.7-0.5-1.4-0.8-2.1-0.8c-0.8,0-1.5,0.3-2.2,0.8c-0.7,0.5-1.2,1.2-1.6,2.2C413.5,500.7,413.3,502.1,413.3,504.1L413.3,504.1z"/>
<rect x="273.5" y="229.4" class="st0" width="21.5" height="21"/>
<rect x="310.9" y="193.2" class="st0" width="29.6" height="67.5"/>
<path class="st0" d="M310.9,193.2v29.7h-29.6v-18.5c0,0,0,0,0.1,0c4.4-0.6,6.8-1.6,6.8-2.9c0-0.9-3.5-2.2-6.8-3v-5.2H310.9z"/>
<path class="st0" d="M281.3,193.2v5.2c-1.5-0.4-2.9-0.7-4-0.8c-3.3-0.4-6.8-0.8-8.4,1.5c0,0,8,5.8,12.4,5.2v18.5H255v-29.7H281.3z"
	/>
<path class="st0" d="M340.5,193.2v44.5H335v-3c0.9,0.6,1.7,0.8,2.2,0.5c1.1-0.7-0.9-8.1-2.2-11.1V215c0.1-1.8,0.2-3.7,0.1-4.9
	c0-0.5-0.1-1-0.1-1.5v-15.4H340.5z"/>
<path class="st0" d="M335,198.6h-1c-1.2-1.1-8-2-11.1-2c-2.9,0.1-6,0.2-7.6,2h-4.4v-5.4H335V198.6z"/>
<path class="st0" d="M310.9,198.6h-6.9c-2.6-0.8-7.1-1.3-9.5-1.2c-2.5,0.1-5,0.2-6.7,1.2h-5.9c-0.2-0.1-0.4-0.1-0.6-0.2v-5.2h29.6
	V198.6z"/>
<path class="st0" d="M269.4,198.6H255v-5.4h26.4v5.2c-1.5-0.4-2.9-0.7-4-0.8C274.4,197.3,271.2,196.9,269.4,198.6L269.4,198.6z"/>
<path class="st0" d="M329.3,217.8c0,0-0.9,9.8,1.8,13.2c2.8,3.3,4.9,4.8,6,4.2c1.1-0.7-0.9-8.1-2.2-11.1
	C333.7,221.2,332.1,218,329.3,217.8L329.3,217.8z"/>
<path class="st0" d="M332,202.3c0,0-4.3,8.9-2.8,13c1.4,4.1,3,6.2,4.2,5.9c1.2-0.2,2-7.9,1.7-11.1
	C334.9,206.9,334.6,203.4,332,202.3L332,202.3z"/>
<path class="st0" d="M314.8,199.4c0,0,8.9,4.6,13.1,3.4c4.3-1.2,6.5-2.6,6.3-3.9c-0.2-1.2-8-2.3-11.3-2.2
	C319.6,196.7,316.1,196.9,314.8,199.4L314.8,199.4z"/>
<path class="st0" d="M286.4,200.1c0,0,8.9,4.6,13.2,3.4c4.2-1.2,6.4-2.6,6.3-3.9c-0.2-1.2-8-2.3-11.3-2.2
	C291.3,197.5,287.7,197.6,286.4,200.1L286.4,200.1z"/>
<path class="st0" d="M268.9,199.1c0,0,8.1,5.8,12.5,5.2c4.4-0.6,6.8-1.6,6.8-2.9c0-1.2-7.5-3.4-10.8-3.9
	C274.1,197.2,270.6,196.9,268.9,199.1L268.9,199.1z"/>
<path class="st0" d="M254.8,206.5c0,0,8.5,0.6,11.4-1.8c2.9-2.4,4.1-4.2,3.5-5.1c-0.6-0.9-7,0.9-9.6,2.1
	C257.6,202.8,254.9,204.1,254.8,206.5L254.8,206.5z"/>
<rect x="158.5" y="503.5" class="st0" width="48" height="31.5"/>
<path class="st0" d="M184.8,538.2l1.1,18.2h13.8l1.1-18.2H184.8z M199.9,553.7h-14.1"/>
<path class="st0" d="M163.4,538.2l1.1,18.2h13.8l1.1-18.2H163.4z M178.5,553.7h-14.1"/>
<path class="st0" d="M184.8,500.8l1.1-18.2h13.8l1.1,18.2H184.8z M199.9,485.3h-14.1"/>
<path class="st0" d="M163.4,500.8l1.1-18.2h13.8l1.1,18.2H163.4z M178.5,485.3h-14.1"/>
<path class="st0" d="M156.2,511.6l-18.1,1.1v13.9l18.1,1.1V511.6z M140.7,526.8v-14.2"/>
<path class="st0" d="M208.8,527l18.1-1.1V512l-18.1-1.1V527z M224.3,511.8V526"/>
<rect x="255.2" y="584.1" class="st0" width="26.2" height="32.6"/>
<rect x="200.7" y="584.1" class="st0" width="54.5" height="32.6"/>
<rect x="169.5" y="584.1" class="st0" width="31.2" height="32.6"/>
<path class="st0" d="M227.3,592.8v13c0,3.4,2.8,6.2,6.2,6.2h13c3.4,0,6.1-2.8,6.1-6.2v-13c0-3.4-2.7-6.2-6.1-6.2h-13
	C230.1,586.6,227.3,589.4,227.3,592.8L227.3,592.8z"/>
<path class="st0" d="M246.3,607.1c0,0.9,0.7,1.6,1.6,1.6c0.9,0,1.6-0.7,1.6-1.6c0-0.9-0.7-1.6-1.6-1.6
	C247,605.5,246.3,606.2,246.3,607.1L246.3,607.1z"/>
<line class="st0" x1="206.3" y1="586.9" x2="206.3" y2="612.1"/>
<line class="st0" x1="209.1" y1="586.9" x2="209.1" y2="612.1"/>
<line class="st0" x1="211.8" y1="586.9" x2="211.8" y2="612.1"/>
<line class="st0" x1="214.5" y1="586.9" x2="214.5" y2="612.1"/>
<line class="st0" x1="217.2" y1="586.9" x2="217.2" y2="612.1"/>
<line class="st0" x1="219.9" y1="586.9" x2="219.9" y2="612.1"/>
<line class="st0" x1="222.7" y1="586.9" x2="222.7" y2="612.1"/>
<rect x="172.8" y="586.4" class="st0" width="25.7" height="25.7"/>
<path class="st0" d="M174.1,588.1v4.5h3.1c0.2-0.6,0.7-1.1,1.3-1.4v-3.1H174.1z"/>
<path class="st0" d="M174.1,594v4.5h4.5v-3.1c-0.6-0.2-1.1-0.7-1.3-1.4H174.1z"/>
<path class="st0" d="M180.2,588.1v3.1c0.6,0.2,1.1,0.7,1.3,1.4h3.1v-4.5H180.2z"/>
<path class="st0" d="M180.2,595.4v3.1h4.5V594h-3.1C181.3,594.6,180.8,595.2,180.2,595.4L180.2,595.4z"/>
<path class="st0" d="M177.1,593.3c0,1.2,1,2.2,2.2,2.2c1.2,0,2.2-1,2.2-2.2c0-1.2-1-2.2-2.2-2.2C178.2,591,177.1,592,177.1,593.3
	L177.1,593.3z"/>
<path class="st0" d="M186.5,588.1v4.5h3.1c0.2-0.6,0.7-1.1,1.3-1.4v-3.1H186.5z"/>
<path class="st0" d="M186.5,594v4.5h4.5v-3.1c-0.6-0.2-1.1-0.7-1.3-1.4H186.5z"/>
<path class="st0" d="M192.6,588.1v3.1c0.6,0.2,1.1,0.7,1.3,1.4h3.1v-4.5H192.6z"/>
<path class="st0" d="M192.6,595.4v3.1h4.5V594h-3.1C193.7,594.6,193.2,595.2,192.6,595.4L192.6,595.4z"/>
<path class="st0" d="M189.5,593.3c0,1.2,1,2.2,2.2,2.2c1.2,0,2.2-1,2.2-2.2c0-1.2-1-2.2-2.2-2.2C190.6,591,189.5,592,189.5,593.3
	L189.5,593.3z"/>
<path class="st0" d="M174.1,600.1v4.5h3.1c0.2-0.6,0.7-1.1,1.3-1.4v-3.1H174.1z"/>
<path class="st0" d="M174.1,606v4.5h4.5v-3.1c-0.6-0.2-1.1-0.7-1.3-1.4H174.1z"/>
<path class="st0" d="M180.2,600.1v3.1c0.6,0.2,1.1,0.7,1.3,1.4h3.1v-4.5H180.2z"/>
<path class="st0" d="M180.2,607.3v3.1h4.5V606h-3.1C181.3,606.6,180.8,607.1,180.2,607.3L180.2,607.3z"/>
<path class="st0" d="M177.1,605.2c0,1.2,1,2.2,2.2,2.2c1.2,0,2.2-1,2.2-2.2c0-1.2-1-2.2-2.2-2.2C178.2,603,177.1,604,177.1,605.2
	L177.1,605.2z"/>
<path class="st0" d="M186.5,600.1v4.5h3.1c0.2-0.6,0.7-1.1,1.3-1.4v-3.1H186.5z"/>
<path class="st0" d="M186.5,606v4.5h4.5v-3.1c-0.6-0.2-1.1-0.7-1.3-1.4H186.5z"/>
<path class="st0" d="M192.6,600.1v3.1c0.6,0.2,1.1,0.7,1.3,1.4h3.1v-4.5H192.6z"/>
<path class="st0" d="M192.6,607.3v3.1h4.5V606h-3.1C193.7,606.6,193.2,607.1,192.6,607.3L192.6,607.3z"/>
<path class="st0" d="M189.5,605.2c0,1.2,1,2.2,2.2,2.2c1.2,0,2.2-1,2.2-2.2c0-1.2-1-2.2-2.2-2.2C190.6,603,189.5,604,189.5,605.2
	L189.5,605.2z"/>
<line class="st0" x1="235.7" y1="614.2" x2="244.9" y2="614.2"/>
<line class="st0" x1="242.9" y1="616.1" x2="242.9" y2="612"/>
<line class="st0" x1="237.8" y1="616.7" x2="237.8" y2="612"/>
<line class="st0" x1="239.9" y1="614.2" x2="231.5" y2="603.5"/>
<rect x="255.2" y="554.2" class="st0" width="26.2" height="29.9"/>
<rect x="134.4" y="584.1" class="st0" width="35.1" height="32.6"/>
<polygon class="st0" points="255.2,533.4 255.2,554.2 281.5,554.2 281.5,524.3 264.3,524.3 "/>
<rect x="99.4" y="584.1" class="st0" width="35.1" height="32.6"/>
<polygon class="st0" points="669.5,285.4 691.4,285.4 691.4,309 673.2,309 669.5,299.4 "/>
<polygon class="st0" points="602.2,279.4 661.7,279.4 675.8,315.6 675.8,315.6 661.7,351.7 602.2,351.7 602.2,315.6 602.2,315.6 "/>
<polygon class="st8" points="655.8,282.1 661.9,279.8 675.8,315.6 "/>
<rect x="599.6" y="277.6" class="st0" width="94.3" height="76"/>
<polygon class="st0" points="669.5,345.8 691.4,345.8 691.4,322.2 673.2,322.2 669.5,331.7 "/>
<polygon class="st8" points="655.8,349 661.9,351.3 675.8,315.6 "/>
<rect x="677.2" y="355.1" class="st0" width="16.7" height="20.6"/>
<rect x="677.2" y="255.3" class="st0" width="16.7" height="20.6"/>
<polygon class="st0" points="471.2,283.3 493,283.3 493,306.8 474.8,306.8 471.2,297.3 "/>
<polygon class="st0" points="403.8,277.3 463.4,277.3 477.4,313.4 477.4,313.4 463.4,349.6 403.8,349.6 403.8,313.4 403.8,313.4 "/>
<polygon class="st8" points="457.5,280 463.5,277.7 477.4,313.4 "/>
<rect x="401.2" y="275.5" class="st0" width="94.3" height="76"/>
<polygon class="st0" points="471.2,343.6 493,343.6 493,320.1 474.8,320.1 471.2,329.6 "/>
<polygon class="st8" points="457.5,346.9 463.5,349.2 477.4,313.4 "/>
<rect x="478.9" y="353" class="st0" width="16.6" height="20.6"/>
<rect x="478.9" y="253.2" class="st0" width="16.6" height="20.6"/>
<rect x="514.9" y="255.9" class="st0" width="24.4" height="38.3"/>
<rect x="514.9" y="294.3" class="st0" width="24.4" height="38.4"/>
<rect x="514.9" y="332.6" class="st0" width="24.4" height="38.3"/>
<line class="st0" x1="527.1" y1="359.3" x2="527.1" y2="267.6"/>
<rect x="584.1" y="416.5" class="st0" width="109.8" height="33.8"/>
<line class="st0" x1="693.9" y1="431.7" x2="584.1" y2="431.7"/>
<line class="st0" x1="657.2" y1="418.6" x2="642.9" y2="446.1"/>
<line class="st0" x1="646.8" y1="418.1" x2="632.8" y2="445.2"/>
<line class="st0" x1="683" y1="416.5" x2="683" y2="447.4"/>
<line class="st0" x1="676.9" y1="416.5" x2="676.9" y2="447.2"/>
<line class="st0" x1="668.8" y1="416.5" x2="668.8" y2="447.2"/>
<line class="st0" x1="613" y1="416.5" x2="613" y2="446.9"/>
<line class="st0" x1="606.9" y1="416.5" x2="606.9" y2="447.3"/>
<line class="st0" x1="598.8" y1="416.5" x2="598.8" y2="447.5"/>
<rect x="359.8" y="416.5" class="st0" width="73.8" height="33.8"/>
<line class="st0" x1="433.6" y1="431.7" x2="359.8" y2="431.7"/>
<line class="st0" x1="412.4" y1="418.6" x2="398.2" y2="446.1"/>
<line class="st0" x1="402.1" y1="418.1" x2="388" y2="445.2"/>
<line class="st0" x1="428.4" y1="416.5" x2="428.4" y2="447.2"/>
<line class="st0" x1="420.2" y1="416.5" x2="420.2" y2="447.2"/>
<line class="st0" x1="381.1" y1="416.5" x2="381.1" y2="446.9"/>
<line class="st0" x1="375" y1="416.5" x2="375" y2="447.3"/>
<line class="st0" x1="366.9" y1="416.5" x2="366.9" y2="447.5"/>
<rect x="181.4" y="426" class="st0" width="34.5" height="24.4"/>
<rect x="215.9" y="426" class="st0" width="34.4" height="24.4"/>
<rect x="250.3" y="426" class="st0" width="34.5" height="24.4"/>
<line class="st0" x1="274.3" y1="438.1" x2="191.9" y2="438.1"/>
<path class="st0" d="M215.8,254.7l18.3-18.5c1.6-1.7,1.6-4.3,0-6l-16.3-16.1c-1.6-1.6-4.3-1.6-6,0l-18.3,18.5
	c-1.6,1.7-1.6,4.3,0.1,6l16.3,16.1C211.4,256.4,214.1,256.3,215.8,254.7L215.8,254.7z"/>
<path class="st0" d="M235.4,228.8L235.4,228.8c0.8-0.8,0.7-2,0-2.7l-13.5-13.4c-0.8-0.7-2-0.7-2.7,0l0,0c-0.8,0.8-0.8,2,0,2.7
	l13.5,13.4C233.4,229.6,234.6,229.6,235.4,228.8L235.4,228.8z"/>
<path class="st0" d="M208.4,256.1L208.4,256.1c0.7-0.8,0.7-2,0-2.7L194.9,240c-0.7-0.7-2-0.7-2.7,0l0,0c-0.7,0.8-0.7,2,0,2.7
	l13.5,13.4C206.5,256.9,207.7,256.9,208.4,256.1L208.4,256.1z"/>
<path class="st0" d="M215.2,212.5c0.9-0.3,1.3-1.3,1-2.2c-0.3-0.9-1.2-1.3-2.1-1c-3,1-5.8,2.4-8.4,4.1c-2.6,1.7-5.1,3.6-7.3,5.8
	c-2.2,2.2-4.1,4.6-5.7,7.3c-1.6,2.6-2.9,5.4-3.9,8.4c-0.3,0.9,0.2,1.8,1,2.1c0.9,0.3,1.8-0.2,2.1-1c0.9-2.7,2.1-5.3,3.6-7.7
	c1.5-2.4,3.2-4.6,5.2-6.7c2-2,4.3-3.8,6.7-5.4C209.9,214.7,212.4,213.4,215.2,212.5L215.2,212.5z"/>
<path class="st0" d="M251.4,260.4c11.3,0,20.5,9.2,20.5,20.5s-9.2,20.5-20.5,20.5c-11.3,0-20.5-9.2-20.5-20.5S240,260.4,251.4,260.4
	L251.4,260.4z"/>
<g>
	<path class="st0" d="M684.6,504.5c4.9,0,8.9,5.8,8.9,12.9c0,7.1-4,12.9-8.9,12.9c-4.9,0-8.9-5.7-8.9-12.9
		C675.7,510.3,679.7,504.5,684.6,504.5L684.6,504.5z"/>
	<path class="st0" d="M693.1,507.4h-2.9c1.3,1.6,2.4,3.7,2.9,6.1V507.4z M690.2,527.4h2.9v-6.1C692.5,523.7,691.5,525.8,690.2,527.4
		L690.2,527.4z"/>
	<path class="st0" d="M675.9,514.5c0,0,3.3-5.7,6.6-4.9c3.3,0.8,2.5,3.1,4.8,4.6c2.3,1.5,5.1,0.6,6,5.4"/>
	<path class="st0" d="M685.6,523.1c1,0,1.8,0.8,1.8,1.7s-0.8,1.7-1.8,1.7c-1,0-1.7-0.8-1.7-1.7S684.6,523.1,685.6,523.1L685.6,523.1
		z"/>
</g>
<g>
	<path class="st0" d="M677.2,538.9c4.1,0,7.2,1.3,8.9,3.4l-0.6,0.2v8.4l0.6,0.2c-1.7,2-4.8,3.4-8.9,3.4c-6.7,0-13.6-4.6-13.6-7.8
		C663.6,543.5,670.5,538.9,677.2,538.9L677.2,538.9z"/>
	<rect x="684" y="543.8" class="st0" width="6.7" height="5.3"/>
	<polygon class="st0" points="685.5,542.4 693.2,539.4 693.2,553.9 685.5,550.8 685.5,549 690.6,549 690.6,543.8 685.5,543.8 	"/>
</g>
<line class="st0" x1="15.3" y1="616.7" x2="79.9" y2="616.7"/>
<line class="st0" x1="15.3" y1="103" x2="495.5" y2="103"/>
<polygon class="st4" points="20.5,619.2 20.8,619.8 30.4,614.9 29.8,613.6 20.2,618.6 20.5,619.2 "/>
<rect x="24.6" y="103" class="st5" width="1.4" height="513.7"/>
<polygon class="st4" points="20.5,105.5 20.2,104.9 29.8,99.9 30.4,101.2 20.8,106.1 20.5,105.5 "/>
<path class="st3" d="M22.1,381.9l-0.9,1.4l-7.1-4.7c0.2,0.6,0.3,1.2,0.3,1.8c0,1.4-0.5,2.6-1.5,3.5c-1,1-2.2,1.4-3.6,1.4
	c-1,0-1.9-0.2-2.7-0.7c-0.8-0.5-1.4-1.1-1.9-2C4.3,381.8,4,380.9,4,380c0-0.9,0.3-1.8,0.7-2.6c0.5-0.8,1.1-1.4,1.9-1.9
	c0.8-0.5,1.7-0.7,2.6-0.7c0.7,0,1.5,0.1,2.2,0.4c0.8,0.3,1.7,0.8,2.8,1.5L22.1,381.9z M12.9,380c0-1-0.3-1.8-1-2.6
	c-0.7-0.7-1.6-1-2.6-1c-1,0-1.9,0.3-2.6,1c-0.7,0.7-1,1.6-1,2.6c0,1,0.3,1.8,1,2.6c0.7,0.7,1.6,1.1,2.6,1.1c1,0,1.8-0.4,2.6-1.1
	C12.6,381.9,12.9,381.1,12.9,380L12.9,380z M4.5,348.1h1.6v6.1l4.7,0.9c-0.2-0.8-0.3-1.4-0.3-2c0-1.6,0.5-2.9,1.6-3.9
	c1-1,2.4-1.5,4.1-1.5c1.1,0,2.2,0.3,3.1,0.8c1,0.5,1.7,1.2,2.2,2.1c0.5,0.9,0.8,1.9,0.8,3.1c0,1.4-0.4,2.6-1.3,3.5
	c-0.9,1-2,1.5-3.3,1.7v-1.8c0.7-0.1,1.2-0.3,1.6-0.7c0.4-0.3,0.8-0.7,1-1.3c0.3-0.5,0.4-1.1,0.4-1.6c0-1.1-0.4-2.1-1.3-2.9
	c-0.9-0.8-1.9-1.2-3.2-1.2c-1.2,0-2.1,0.4-2.8,1.1c-0.7,0.7-1.1,1.7-1.1,2.9c0,1,0.3,2.3,0.9,3.7l-8.6-1.6V348.1z M4.5,334.8h1.6
	v6.1l4.7,0.9c-0.2-0.7-0.3-1.4-0.3-2c0-1.6,0.5-2.9,1.6-3.9s2.4-1.5,4.1-1.5c1.1,0,2.2,0.3,3.1,0.8c1,0.5,1.7,1.2,2.2,2.1
	c0.5,0.9,0.8,1.9,0.8,3.1c0,1.4-0.4,2.6-1.3,3.5c-0.9,1-2,1.5-3.3,1.7v-1.8c0.7-0.1,1.2-0.3,1.6-0.7c0.4-0.3,0.8-0.8,1-1.3
	c0.3-0.5,0.4-1.1,0.4-1.7c0-1.1-0.4-2.1-1.3-2.9c-0.9-0.8-1.9-1.2-3.2-1.2c-1.2,0-2.1,0.4-2.8,1.1c-0.7,0.7-1.1,1.7-1.1,2.9
	c0,1,0.3,2.2,0.9,3.7l-8.6-1.6V334.8z M4,363v-0.3h12v-2.1h1.6v2.1h4v1.7h-4v8.2L4,363z M16,364.4H8.8l7.2,5.1V364.4z"/>
<line class="st0" x1="79.9" y1="43.2" x2="79.9" y2="143.6"/>
<line class="st0" x1="693.9" y1="43.2" x2="693.9" y2="83.6"/>
<polygon class="st4" points="77.5,60 76.8,59.6 81.8,50.1 83.1,50.7 78.1,60.3 77.5,60 "/>
<rect x="79.9" y="54.5" class="st5" width="614" height="1.4"/>
<polygon class="st4" points="691.4,60 692.1,60.3 697,50.7 695.7,50.1 690.8,59.6 691.4,60 "/>
<polygon class="st6" points="64.8,430.5 64.8,147.9 158.3,147.9 158.3,158.8 75.7,158.8 75.7,430.5 "/>
<rect x="224.9" y="160.2" class="st6" width="84.7" height="10.9"/>
<rect x="376.2" y="160.2" class="st6" width="81.9" height="10.9"/>
<rect x="582.8" y="160.2" class="st6" width="58.5" height="10.9"/>
<rect x="522.7" y="87.9" class="st6" width="160.6" height="10.9"/>
<rect x="84.2" y="490.2" class="st6" width="10.9" height="83.3"/>
<rect id="_x3C_Slice_x3E__4_" x="-71.3" y="-23" class="st9" width="844" height="816"/>
<rect x="162" y="255.2" class="st10" width="11.4" height="60.4"/>
<path class="st2" d="M475.1,562.4c0,26.9-21.8,48.7-48.7,48.7v-48.7"/>
<path class="st2" d="M349.4,572c0-26.9-21.8-48.7-48.7-48.7V572"/>
<path class="st2" d="M593,496.4c-26.9,0-48.7,21.8-48.7,48.7H593"/>
<g>
	<path class="st3" d="M96.3,183.3c0,2.3-1.6,3.3-3.1,3.3c-1.7,0-3-1.2-3-3.2c0-2.1,1.4-3.3,3.1-3.3
		C95.1,180.1,96.3,181.4,96.3,183.3z M91.3,183.4c0,1.4,0.8,2.4,1.9,2.4c1.1,0,1.9-1,1.9-2.4c0-1.1-0.5-2.4-1.9-2.4
		C91.9,181,91.3,182.2,91.3,183.4z"/>
	<path class="st3" d="M102.5,178.1c-0.3,0.1-0.9,0.2-1.3,0.3c-1,0.2-1.8,0.5-2.2,1.2c-0.4,0.6-0.6,1.4-0.7,2.1h0
		c0.4-0.9,1.3-1.4,2.2-1.4c1.5,0,2.7,1.1,2.7,3.1c0,2.1-1.1,3.3-2.9,3.3c-2.2,0-2.9-2.1-2.9-4.2c0-1.4,0.3-2.6,1-3.5
		c0.6-0.9,1.5-1.3,2.7-1.5c0.5-0.1,1.1-0.2,1.6-0.3L102.5,178.1z M100.2,181.1c-0.7,0-1.2,0.4-1.4,0.9c-0.2,0.4-0.3,0.8-0.3,1.3
		c0,1,0.5,2.5,1.8,2.5c1.3,0,1.7-1.2,1.7-2.4C102,182.4,101.6,181.1,100.2,181.1z"/>
	<path class="st3" d="M105.7,180.3v5.4h2.2v-5.4h1.1v5.4h2.2v-5.4h1.1v5.4l0.6,0l-0.1,2.8H112l-0.1-2h-7.4v-6.3H105.7z"/>
	<path class="st3" d="M117.8,186.5l-0.1-0.8h0c-0.4,0.5-1,0.9-1.9,0.9c-1.3,0-1.9-0.9-1.9-1.8c0-1.5,1.4-2.4,3.8-2.3v-0.1
		c0-0.5-0.1-1.5-1.4-1.5c-0.6,0-1.2,0.2-1.6,0.5l-0.3-0.8c0.5-0.3,1.3-0.6,2.1-0.6c1.9,0,2.4,1.3,2.4,2.6v2.4c0,0.5,0,1.1,0.1,1.5
		H117.8z M117.7,183.3c-1.2,0-2.7,0.2-2.7,1.4c0,0.7,0.5,1.1,1.1,1.1c0.8,0,1.3-0.5,1.5-1.1c0-0.1,0.1-0.2,0.1-0.4V183.3z"/>
	<path class="st3" d="M125.3,186.5h-1.1v-2.6h-0.8c-0.5,0-0.8,0.1-1.1,0.4c-0.5,0.4-0.6,1.2-0.9,1.8c-0.1,0.2-0.2,0.4-0.3,0.5h-1.2
		c0.1-0.2,0.3-0.4,0.4-0.7c0.3-0.6,0.4-1.4,1-1.9c0.2-0.2,0.4-0.3,0.7-0.4v0c-0.8-0.1-1.7-0.6-1.7-1.6c0-0.7,0.4-1.1,0.8-1.4
		c0.5-0.3,1.3-0.4,2.1-0.4c0.8,0,1.5,0.1,2,0.1V186.5z M124.2,181c-0.3,0-0.5-0.1-0.9-0.1c-0.8,0-1.7,0.2-1.7,1.1
		c0,0.8,1,1.1,1.7,1.1c0.5,0,0.7,0,1,0V181z"/>
	<path class="st3" d="M95.8,193.3v6.3h-1.1v-5.4h-2.9v5.4h-1.1v-6.3H95.8z"/>
	<path class="st3" d="M102.4,193.3v6.3h-1.1v-5.4h-2.2v1.6c0,1.8-0.2,3-1,3.5c-0.3,0.2-0.7,0.4-1.2,0.4l-0.1-0.9
		c0.2,0,0.5-0.1,0.6-0.3c0.6-0.4,0.6-1.3,0.6-2.7v-2.5H102.4z"/>
	<path class="st3" d="M110,196.3c0,2.3-1.6,3.3-3.1,3.3c-1.7,0-3-1.2-3-3.2c0-2.1,1.4-3.3,3.1-3.3C108.7,193.1,110,194.4,110,196.3z
		 M105,196.4c0,1.4,0.8,2.4,1.9,2.4c1.1,0,1.9-1,1.9-2.4c0-1.1-0.5-2.4-1.9-2.4C105.6,194,105,195.2,105,196.4z"/>
	<path class="st3" d="M112.5,193.3v5.4h2.2v-5.4h1.1v5.4h2.2v-5.4h1.1v5.4l0.6,0l-0.1,2.8h-0.9l-0.1-2h-7.4v-6.3H112.5z"/>
	<path class="st3" d="M124.6,199.5l-0.1-0.8h0c-0.4,0.5-1,0.9-1.9,0.9c-1.3,0-1.9-0.9-1.9-1.8c0-1.5,1.4-2.4,3.8-2.3v-0.1
		c0-0.5-0.1-1.5-1.4-1.5c-0.6,0-1.2,0.2-1.6,0.5l-0.3-0.8c0.5-0.3,1.3-0.6,2.1-0.6c1.9,0,2.4,1.3,2.4,2.6v2.4c0,0.5,0,1.1,0.1,1.5
		H124.6z M124.5,196.3c-1.2,0-2.7,0.2-2.7,1.4c0,0.7,0.5,1.1,1.1,1.1c0.8,0,1.3-0.5,1.5-1.1c0-0.1,0.1-0.2,0.1-0.4V196.3z"/>
	<path class="st3" d="M132.3,193.3v5.4l0.7,0l-0.1,2.8H132l-0.1-2h-4.4l-0.1,2h-0.9l-0.1-2.8l0.5,0c0.3-0.4,0.5-0.8,0.6-1.3
		c0.2-0.8,0.4-1.6,0.4-2.5v-1.6H132.3z M129.1,195.2c0,0.8-0.1,1.6-0.3,2.3c-0.1,0.4-0.3,0.8-0.5,1.2h2.9v-4.5h-2.1V195.2z"/>
	<path class="st3" d="M135.4,193.3v2.1c0.3-0.1,0.7-0.1,1-0.1c1.4,0,2.9,0.4,2.9,2.1c0,0.7-0.3,1.1-0.7,1.4
		c-0.7,0.6-1.8,0.7-2.7,0.7c-0.6,0-1.2,0-1.7-0.1v-6.3H135.4z M135.4,198.7c0.2,0,0.5,0.1,0.8,0.1c0.9,0,2-0.3,2-1.3
		c0-1.1-1.1-1.3-2-1.3c-0.3,0-0.6,0-0.8,0.1V198.7z"/>
	<path class="st3" d="M90.6,222.3c0-2.1,1.3-3.6,3.4-4.5l0-0.1c-1.9-0.9-2.7-2.3-2.7-3.8c0-2.7,2.3-4.5,5.2-4.5
		c3.3,0,4.9,2.1,4.9,4.2c0,1.4-0.7,3-2.8,4v0.1c2.1,0.8,3.4,2.3,3.4,4.4c0,2.9-2.5,4.9-5.7,4.9C92.7,226.8,90.6,224.7,90.6,222.3z
		 M99.7,222.1c0-2.1-1.4-3-3.7-3.7c-2,0.6-3,1.9-3,3.5c-0.1,1.7,1.2,3.2,3.4,3.2C98.4,225.2,99.7,223.9,99.7,222.1z M93.4,213.7
		c0,1.7,1.3,2.6,3.2,3.1c1.5-0.5,2.6-1.5,2.6-3.1c0-1.4-0.8-2.8-2.9-2.8C94.5,211,93.4,212.2,93.4,213.7z"/>
	<path class="st3" d="M104.2,226.5v-1.4l1.8-1.7c4.3-4.1,6.3-6.3,6.3-8.8c0-1.7-0.8-3.3-3.4-3.3c-1.5,0-2.8,0.8-3.6,1.4l-0.7-1.6
		c1.2-1,2.8-1.7,4.8-1.7c3.6,0,5.2,2.5,5.2,4.9c0,3.1-2.3,5.6-5.8,9.1l-1.4,1.2v0.1h7.6v1.9H104.2z"/>
	<path class="st3" d="M118.4,214h2.8l2.3,6.3c0.3,0.9,0.9,2.5,1.1,3.5h0.1c0.3-0.9,1-2.9,1.5-4.3l2-5.5h2.8l0.9,12.6h-2.2l-0.3-6
		c-0.1-1.4-0.2-3-0.2-4.5h-0.1c-0.3,1.1-0.7,2.2-1.4,4.1l-2.4,6.3h-1.7l-2.2-6.2c-0.4-1.2-0.9-3-1.2-4.2H120
		c-0.1,1.5-0.1,3.1-0.2,4.5l-0.3,6h-2.1L118.4,214z"/>
	<path class="st3" d="M133.3,218.7l1.6-1.5c2.2-2,3.3-3.2,3.3-4.5c0-1-0.6-1.8-2-1.8c-0.9,0-1.7,0.5-2.2,0.8l-0.5-1.2
		c0.7-0.6,1.9-1.1,3.2-1.1c2.4,0,3.5,1.5,3.5,2.9c0,2-1.5,3.4-3.5,5.1l-0.8,0.7v0.1h4.4v1.4h-7V218.7z"/>
</g>
<g>
	<path class="st3" d="M337,32.9h3.4v17.2h-1.7V34.6H336L337,32.9z"/>
	<path class="st3" d="M350.3,32.9h3.4v17.2H352V34.6h-2.7L350.3,32.9z"/>
	<path class="st3" d="M363.6,32.9h3.4v17.2h-1.7V34.6h-2.7L363.6,32.9z"/>
	<path class="st3" d="M375.3,38.3h-1.7c0-1.7,0.6-3.1,1.7-4.2c1.1-1.1,2.4-1.6,4-1.6c1.6,0,2.9,0.5,3.8,1.5c1,1,1.5,2.2,1.5,3.6
		c0,1-0.2,1.9-0.7,2.7s-1.4,2-2.7,3.5l-4.3,4.6h8v1.7h-11.7l6.6-7.1c1.3-1.4,2.2-2.5,2.6-3.2s0.6-1.4,0.6-2.2c0-1-0.4-1.8-1.1-2.5
		s-1.6-1-2.7-1c-1.1,0-2,0.4-2.7,1.1S375.4,36.9,375.3,38.3z"/>
	<path class="st3" d="M397.6,32.9v1.6h-6.1l-0.9,4.7c0.7-0.2,1.4-0.3,2-0.3c1.6,0,2.9,0.5,3.9,1.6s1.5,2.4,1.5,4
		c0,1.1-0.3,2.2-0.8,3.1s-1.2,1.7-2.1,2.2s-1.9,0.8-3.1,0.8c-1.4,0-2.6-0.4-3.5-1.3s-1.5-2-1.7-3.3h1.8c0.1,0.7,0.4,1.2,0.7,1.6
		s0.7,0.7,1.3,1s1.1,0.4,1.7,0.4c1.1,0,2.1-0.4,2.9-1.3c0.8-0.9,1.2-1.9,1.2-3.2c0-1.2-0.4-2.1-1.1-2.8s-1.7-1.1-2.9-1.1
		c-1,0-2.2,0.3-3.7,0.9l1.6-8.6H397.6z"/>
</g>
<rect x="593.4" y="459.9" class="st0" width="100.5" height="36.9"/>
<path class="st0" d="M684.4,494h-83.1c-2.8,0-5-1.8-5-4.1v-23.1c0-2.3,2.3-4.1,5-4.1h83.1c2.8,0,5.1,1.8,5.1,4.1v23.1
	C689.5,492.1,687.2,494,684.4,494L684.4,494z"/>
<path class="st0" d="M665.2,494c0,0,13.2-4.1,13.2-15.7c0-11.6-12.7-15.6-12.7-15.6"/>
<path class="st0" d="M607.2,480.7c-1.3,0-2.4-1.1-2.4-2.4c0-1.3,1.1-2.4,2.4-2.4c1.3,0,2.4,1.1,2.4,2.4
	C609.7,479.7,608.6,480.7,607.2,480.7L607.2,480.7z"/>
<g>
	<path class="st0" d="M380.9,587.4c4.1,0,7.2,1.3,8.9,3.4l-0.6,0.2v8.4l0.6,0.2c-1.7,2-4.8,3.4-8.9,3.4c-6.7,0-13.6-4.6-13.6-7.8
		C367.3,592,374.3,587.4,380.9,587.4L380.9,587.4z"/>
	<rect x="387.7" y="592.3" class="st0" width="6.7" height="5.3"/>
	<polygon class="st0" points="389.3,591 396.9,587.9 396.9,602.4 389.3,599.4 389.3,597.6 394.4,597.6 394.4,592.3 389.3,592.3 	"/>
</g>
</svg>
